<?xml version="1.0" standalone="no"?>
<!DOCTYPE svg PUBLIC "-//W3C//DTD SVG 1.1//EN" "http://www.w3.org/Graphics/SVG/1.1/DTD/svg11.dtd" >
<svg xmlns="http://www.w3.org/2000/svg" xmlns:xlink="http://www.w3.org/1999/xlink" version="1.1">
<metadata>
Created by FontForge 20170910 at Sat Feb 11 13:50:21 2017
 By Jimmy Wärting
Copyright (c) 2017 by Twicolabs Fontdation. All rights reserved.
</metadata>
<defs>
<font id="ChuckNoon2" horiz-adv-x="232" >
  <font-face 
    font-family="Chuck Noon 2"
    font-weight="400"
    font-stretch="normal"
    units-per-em="1000"
    panose-1="2 0 5 4 0 0 0 2 0 4"
    ascent="800"
    descent="-200"
    x-height="557"
    cap-height="638"
    bbox="-42 -229 851 862"
    underline-thickness="50"
    underline-position="-100"
    unicode-range="U+000D-FB02"
  />
<missing-glyph horiz-adv-x="225" 
 />
    <glyph glyph-name=".notdef" horiz-adv-x="225" 
 />
    <glyph glyph-name="NULL" horiz-adv-x="0" 
 />
    <glyph glyph-name="NULL" horiz-adv-x="0" 
 />
    <glyph glyph-name="nonmarkingreturn" unicode="&#xd;" horiz-adv-x="225" 
 />
    <glyph glyph-name="space" unicode=" " horiz-adv-x="230" 
 />
    <glyph glyph-name="dollar" unicode="$" horiz-adv-x="433" 
d="M26 218q64 -61 141 -61q78 0 78 54q0 38 -75 71q-44 19 -72 33.5t-42 25.5q-53 44 -53 114q0 76 53 115q24 19 59 25l-15 43h171l-15 -47q35 -8 59 -15l-24 -138q-59 56 -121 56q-39 0 -39 -29q0 -20 21 -30q14 -5 33.5 -13t45.5 -19q142 -62 142 -175q0 -77 -57 -134
q-29 -27 -61 -42l17 -52h-171l13 41q-32 4 -61.5 11t-52.5 18z" />
    <glyph glyph-name="percent" unicode="%" horiz-adv-x="599" 
d="M136 0l203 638h64l-203 -638h-64zM418 -3q-29 0 -51.5 13t-37.5 34t-23 47t-8 52t8 52.5t23 47.5t37.5 34t51.5 13t51.5 -13t38 -34t23.5 -47.5t8 -52.5t-8 -52t-23.5 -47t-38 -34t-51.5 -13zM418 62q15 0 25.5 8t17.5 20.5t10.5 26.5t3.5 26t-3.5 26.5t-10.5 27
t-17.5 20.5t-25.5 8q-14 0 -24.5 -8t-17.5 -20.5t-10.5 -27t-3.5 -26.5t3.5 -26t10 -26.5t17 -20.5t25.5 -8zM121 348q-29 0 -51.5 13.5t-38 34.5t-23.5 47t-8 52t8 52t23.5 47t38 34t51.5 13q28 0 50.5 -13t38 -34t23.5 -47t8 -52t-8 -52.5t-23.5 -47.5t-38 -34t-50.5 -13z
M121 413q14 0 24.5 8t17.5 20.5t10.5 27t3.5 26.5t-3.5 26t-10.5 26.5t-17.5 20.5t-24.5 8q-15 0 -25.5 -8t-17.5 -20.5t-10.5 -26.5t-3.5 -26t3.5 -26.5t10 -26.5t17.5 -20.5t26 -8.5z" />
    <glyph glyph-name="ampersand" unicode="&#x26;" horiz-adv-x="580" 
d="M0 207q0 47 17.5 85t49.5 66q-13 21 -20 45.5t-7 54.5q0 43 20.5 76.5t52.5 56.5t71 35t77 12q31 0 63.5 -11t59.5 -32t46 -51.5t24 -68.5l-116 -20q0 16 -7 28t-18 19.5t-25 11t-29 3.5q-16 0 -31.5 -3.5t-27.5 -11t-19.5 -18.5t-7.5 -26q0 -14 9 -29.5t22 -31t28.5 -30
t27.5 -25.5l116 -107l9 24l135 -24q-21 -48 -48 -90l48 -44l-86 -101l-51 47q-31 -22 -68.5 -34.5t-82.5 -12.5q-48 0 -90 14.5t-73.5 41.5t-50 65t-18.5 86zM152 261q-19 -22 -19 -54q0 -23 8.5 -39t23 -26.5t32 -15t35.5 -4.5q30 0 55 14z" />
    <glyph glyph-name="quotesingle" unicode="'" horiz-adv-x="205" 
d="M72 710q30 0 51.5 -21t21.5 -51v-2q-1 -23 -11 -46t-25.5 -41t-34.5 -29.5t-38 -11.5q11 10 21 25t14 32q-29 1 -50 22t-21 51t21 51t51 21z" />
    <glyph glyph-name="parenleft" unicode="(" horiz-adv-x="216" 
d="M81 -64q-40 103 -60 197t-20 186t20 186t60 197h75q-43 -105 -64.5 -198.5t-21.5 -184.5t21.5 -184.5t64.5 -198.5h-75z" />
    <glyph glyph-name="parenright" unicode=")" horiz-adv-x="216" 
d="M75 -64h-75q43 105 64 198.5t21 184.5t-21 184.5t-64 198.5h75q40 -103 60 -197t20 -186t-20 -186t-60 -197z" />
    <glyph glyph-name="asterisk" unicode="*" horiz-adv-x="235" 
d="M59 557v42l-30 -24l-29 50l44 17l-44 17l29 50l30 -24v41h57v-41l30 24l29 -50l-44 -17l44 -17l-29 -50l-30 24v-42h-57v0v0z" />
    <glyph glyph-name="plus" unicode="+" horiz-adv-x="322" 
d="M87 156v78h-87l16 89h71v79h88v-79h87l-15 -89h-72v-78h-88v0v0z" />
    <glyph glyph-name="comma" unicode="," horiz-adv-x="205" 
d="M72 145q30 0 51.5 -21.5t21.5 -51.5v-2q-1 -23 -11 -45.5t-25.5 -40.5t-34.5 -29.5t-38 -11.5q11 9 21 24.5t14 32.5q-29 1 -50 22t-21 50q0 30 21 51.5t51 21.5z" />
    <glyph glyph-name="hyphen" unicode="-" horiz-adv-x="317" 
d="M16 323h241l-16 -89h-241l16 89v0v0z" />
    <glyph glyph-name="period" unicode="." horiz-adv-x="205" 
d="M72 145q30 0 51.5 -21.5t21.5 -51.5q0 -29 -21.5 -50.5t-51.5 -21.5t-51 21.5t-21 50.5q0 30 21 51.5t51 21.5z" />
    <glyph glyph-name="slash" unicode="/" horiz-adv-x="329" 
d="M0 0l205 638h64l-205 -638h-64v0v0z" />
    <glyph glyph-name="zero" unicode="0" horiz-adv-x="623" 
d="M0 322q0 61 20.5 119t57.5 102t89 71t115 27q66 0 118 -28t88.5 -73.5t55.5 -102.5t19 -115t-19 -116t-55.5 -104.5t-88.5 -75.5t-118 -29t-118.5 29t-89 75.5t-55.5 104.5t-19 116zM127 322q0 -29 9 -63.5t28 -64.5t48.5 -50t69.5 -20t69 20t48 50t28 64.5t9 63.5
q0 28 -9 62.5t-28 64.5t-48 50.5t-69 20.5t-69 -19.5t-48 -49t-28.5 -64.5t-9.5 -65z" />
    <glyph glyph-name="one" unicode="1" horiz-adv-x="242" 
d="M29 528h-29l29 110h133v-580l20 -58h-171l18 58v470v0v0z" />
    <glyph glyph-name="two" unicode="2" horiz-adv-x="449" 
d="M345 107l44 22v-129h-389v107q0 52 18.5 91.5t48 71t66.5 58.5t75 55q21 16 34.5 31.5t13.5 43.5q-1 24 -23.5 43t-62.5 19q-63 0 -117 -41l-24 139q30 11 67 17t72 6q38 0 77 -12.5t71 -36t52 -57.5t20 -77q0 -53 -19 -89t-47 -63t-61.5 -47.5t-61.5 -42t-47 -47.5
t-19 -62h212z" />
    <glyph glyph-name="three" unicode="3" horiz-adv-x="419" 
d="M31 509v129h81q50 0 94 -11.5t76.5 -35.5t51.5 -61.5t19 -89.5q0 -38 -18 -69.5t-41 -55.5q27 -25 46 -58.5t19 -74.5q0 -47 -22 -81.5t-57 -57.5t-78 -34.5t-85 -11.5q-30 0 -59 4t-58 12l23 132q24 -13 54.5 -19.5t55.5 -6.5q40 0 66.5 19t27.5 44q0 21 -11.5 35
t-28.5 21.5t-37 10.5t-38 3v121q16 0 35 3.5t35 11.5t27 20.5t11 31.5q0 44 -29 67.5t-71 23.5q-23 0 -46 -6t-43 -16z" />
    <glyph glyph-name="four" unicode="4" horiz-adv-x="481" 
d="M205 638v0h166v-386l50 14v-137l-50 14v-85l20 -58h-171l19 58v85h-239v109zM239 252v0v199l-106 -199h106z" />
    <glyph glyph-name="five" unicode="5" horiz-adv-x="443" 
d="M120 122q22 0 45 7.5t42 21.5t31 34.5t12 46.5q0 27 -10.5 46.5t-28 33t-40 20t-46.5 6.5q-29 0 -53.5 -9t-47.5 -25l27 334h297v-136l-43 28h-130l-6 -75q46 -6 85 -24.5t67.5 -47.5t45 -67t16.5 -84q0 -48 -22.5 -90.5t-59.5 -75t-84.5 -51t-96.5 -18.5q-30 0 -59.5 4
t-60.5 11l24 136q43 -26 96 -26z" />
    <glyph glyph-name="six" unicode="6" horiz-adv-x="521" 
d="M241 -3q-65 0 -112 27.5t-76.5 73t-42.5 103.5t-9 118t23.5 118t55 103.5t86.5 73t116 27.5q37 0 69.5 -7.5t64.5 -21.5l-22 -125q-24 14 -51 22t-53 8q-23 0 -43 -8.5t-37.5 -23t-31 -33t-22.5 -38.5q40 25 92 25q43 0 82 -17t68 -46.5t46 -69t17 -84.5t-16 -86
t-45 -71.5t-69.5 -49t-89.5 -18.5zM241 320q-31 0 -51.5 -15t-31 -37.5t-10.5 -49t10.5 -49t31 -37.5t51.5 -15q40 0 63.5 30.5t23.5 74.5q0 19 -5.5 37t-16.5 31.5t-27.5 21.5t-37.5 8z" />
    <glyph glyph-name="seven" unicode="7" horiz-adv-x="437" 
d="M377 638v-107q-30 -44 -55.5 -102.5t-45 -122t-32.5 -128t-18 -120.5l20 -58h-172l19 58q4 54 16 112t29 117t38 116.5t44 108.5q2 5 5.5 9.5t5.5 9.5h-188l-43 -22v129h377z" />
    <glyph glyph-name="eight" unicode="8" horiz-adv-x="496" 
d="M375 316q28 -25 44.5 -58t16.5 -73q0 -42 -18.5 -76.5t-48.5 -59.5t-69.5 -38.5t-81.5 -13.5q-40 0 -79 13t-70 37.5t-50 59.5t-19 78q0 40 16.5 73t44.5 58q-26 26 -40 59t-14 71q0 43 18 78.5t47 61.5t67 40.5t79 14.5q43 0 81 -15t67 -41.5t46 -62t17 -76.5
q0 -38 -14 -71t-40 -59zM218 119q35 0 60 19t25 47t-25 47.5t-60 19.5t-60 -19.5t-25 -47.5q0 -16 8 -28t20.5 -20.5t27.5 -13t29 -4.5zM140 446q0 -30 23 -51.5t55 -21.5t55.5 21.5t23.5 51.5t-23.5 51.5t-55.5 21.5q-31 0 -54.5 -20.5t-23.5 -52.5z" />
    <glyph glyph-name="nine" unicode="9" horiz-adv-x="521" 
d="M219 641q65 0 112 -27.5t77 -73t43 -103.5t9 -118t-23.5 -118t-55 -103.5t-86.5 -73t-116 -27.5q-44 0 -81.5 10.5t-75.5 27.5l23 131q26 -22 60 -33.5t66 -11.5q45 0 80.5 27t52.5 67q-20 -13 -43.5 -18.5t-47.5 -5.5q-45 0 -84 18.5t-67.5 49.5t-45 71.5t-16.5 84.5
q0 45 16 86t45 72t69.5 49.5t88.5 18.5zM219 310q31 0 51.5 15.5t31 39t10.5 51t-10.5 51t-31 39t-51.5 15.5q-39 0 -62.5 -30.5t-23.5 -75.5q0 -19 5.5 -37.5t16 -33.5t27 -24.5t37.5 -9.5z" />
    <glyph glyph-name="colon" unicode=":" horiz-adv-x="205" 
d="M72 145q30 0 51 -21.5t21 -51.5q0 -29 -21 -50.5t-51 -21.5t-51 21.5t-21 50.5q0 30 21 51.5t51 21.5zM72 424q30 0 51.5 -21.5t21.5 -51.5t-21.5 -51t-51.5 -21t-51 21t-21 51t21 51.5t51 21.5z" />
    <glyph glyph-name="semicolon" unicode=";" horiz-adv-x="205" 
d="M72 424q30 0 51.5 -21.5t21.5 -51.5t-21.5 -51t-51.5 -21t-51 21t-21 51t21 51.5t51 21.5zM72 145q30 0 51 -21.5t21 -51.5v-2q0 -23 -10 -45.5t-25.5 -40.5t-34.5 -29.5t-38 -11.5q11 9 21 24.5t13 32.5q-29 1 -49.5 22t-20.5 50q0 30 21 51.5t51 21.5z" />
    <glyph glyph-name="less" unicode="&#x3c;" horiz-adv-x="301" 
d="M0 321l220 99l21 -89l-151 -52l151 -53l-21 -88l-220 99v84v0v0z" />
    <glyph glyph-name="equal" unicode="=" horiz-adv-x="342" 
d="M16 393h266l-16 -88h-266l16 88v0v0zM16 253h266l-16 -89h-266l16 89v0v0z" />
    <glyph glyph-name="greater" unicode="&#x3e;" horiz-adv-x="301" 
d="M241 321v0v-84l-220 -99l-21 88l151 53l-151 52l21 89z" />
    <glyph glyph-name="question" unicode="?" horiz-adv-x="395" 
d="M48 187q0 35 11.5 62t28.5 48.5t36.5 40t36.5 37t28.5 38t11.5 44.5q0 15 -8 26.5t-20 19t-26.5 11t-27.5 3.5q-25 0 -49.5 -9.5t-44.5 -24.5l-25 140q27 7 56.5 11t58.5 4q38 0 77 -12.5t71 -36t52 -57.5t20 -77q0 -35 -11.5 -61t-28.5 -47t-37.5 -39t-37.5 -36
t-28.5 -38.5t-11.5 -46.5h-132zM114 145q30 0 51.5 -21.5t21.5 -51.5q0 -29 -21.5 -50.5t-51.5 -21.5t-51 21.5t-21 50.5q0 30 21 51.5t51 21.5z" />
    <glyph glyph-name="at" unicode="@" horiz-adv-x="698" 
d="M336 194q-12 -18 -29 -29t-35.5 -14t-36.5 1.5t-31 16.5q-24 21 -33 53.5t-6 68.5t16.5 73t35 66t50 47.5t61.5 18.5q23 0 38 -9.5t24 -24.5l4 17h64l-62 -307q-8 -37 3.5 -55.5t31.5 -18.5q34 0 60.5 25t45 60t28 72.5t9.5 63.5q0 53 -20 100t-54.5 82t-81 55t-99.5 20
t-99.5 -20t-81 -55t-54.5 -82t-20 -100t20 -100t54.5 -82t81 -55t99.5 -20l-11 -65q-64 2 -120 28t-98 69.5t-66 101.5t-24 123q0 67 25 125.5t68.5 102t101.5 69t124 25.5t124 -25.5t101.5 -69t68.5 -102t25 -125.5q0 -33 -7.5 -69t-22.5 -70t-37 -64t-50 -51
q-19 -14 -43.5 -23t-49 -9t-46.5 10.5t-35 35.5q-13 24 -14.5 55t3.5 60zM328 431q-21 0 -39.5 -16.5t-32 -41.5t-21.5 -54t-7 -54t12.5 -41.5t35.5 -16.5q19 0 35.5 16.5t29 41.5t19.5 54t6.5 54t-10 41.5t-28.5 16.5z" />
    <glyph glyph-name="A" unicode="A" horiz-adv-x="563" 
d="M146 638v0h221l-7 -58l119 -521l34 -59h-173l5 58l-20 101h-137l-20 -101l5 -58h-173l34 59l119 521zM203 239v0h106l-53 268z" />
    <glyph glyph-name="B" unicode="B" horiz-adv-x="488" 
d="M1 0l19 58v521l-20 59h192q45 0 83.5 -11t67 -32t44.5 -51.5t16 -69.5q0 -36 -15 -65.5t-41 -49.5q38 -26 59.5 -64.5t21.5 -90.5q0 -47 -17 -84.5t-47.5 -64t-74 -41t-95.5 -14.5h-193zM152 539v-128h38q81 0 81 63q0 66 -78 65h-41zM152 299v-194h42q101 0 101 99
q0 48 -33 71.5t-90 23.5h-20z" />
    <glyph glyph-name="C" unicode="C" horiz-adv-x="474" 
d="M299 116q67 0 115 45l-26 -150q-44 -14 -89 -14q-69 0 -124.5 26t-94.5 70t-59.5 101.5t-20.5 120.5q0 62 20.5 121t59.5 104.5t94.5 73t124.5 27.5q29 0 59 -4t52 -14l-21 -131q-43 28 -90 30q-41 0 -72 -18t-52 -47.5t-31.5 -66.5t-10.5 -75t10.5 -74t31.5 -64
t52 -44.5t72 -16.5z" />
    <glyph glyph-name="D" unicode="D" horiz-adv-x="525" 
d="M1 0l19 58v521l-20 59h175q74 0 128.5 -24.5t90.5 -67.5t53.5 -100t17.5 -123q0 -64 -18.5 -122.5t-55 -103t-90.5 -71t-125 -26.5h-175zM152 118h24q43 0 73 18t48.5 47.5t26.5 66t8 73.5q0 43 -8 79t-27 62.5t-49 41t-73 14.5h-23v-402z" />
    <glyph glyph-name="E" unicode="E" horiz-adv-x="415" 
d="M332 0h-331l20 58v521l-21 59h348v-129l-59 20h-136v-209h104l46 15v-109l-47 13h-103v-130h156l46 21l-23 -130v0v0z" />
    <glyph glyph-name="F" unicode="F" horiz-adv-x="415" 
d="M355 509l-58 20h-144v-209h111l46 15v-109l-47 13h-110v-181l20 -58h-172l20 58v521l-21 59h355v-129v0v0z" />
    <glyph glyph-name="G" unicode="G" horiz-adv-x="527" 
d="M299 116q21 0 43 5v109l-19 59h144v-292l-52 29h-1v-4q-26 -13 -55 -19t-60 -6q-69 0 -124.5 26t-94.5 70t-59.5 101.5t-20.5 120.5q0 62 20.5 121t59.5 104.5t94.5 73t124.5 27.5q29 0 59 -4t52 -14l-21 -131q-43 28 -90 30q-41 0 -72 -18t-52 -47.5t-31.5 -66.5
t-10.5 -75t10.5 -74t31.5 -64t52 -44.5t72 -16.5z" />
    <glyph glyph-name="H" unicode="H" horiz-adv-x="527" 
d="M1 0l19 58v521l-20 59h171l-19 -59v-340h163v340l-19 59h170l-18 -59v-521l19 -58h-170l18 58v101h-163v-101l20 -58h-171v0v0z" />
    <glyph glyph-name="I" unicode="I" 
d="M1 0l19 58v521l-20 59h171l-19 -59v-521l20 -58h-171v0v0z" />
    <glyph glyph-name="J" unicode="J" horiz-adv-x="391" 
d="M115 116q27 0 46 19t19 45v399l-20 59h171l-19 -59l1 -399q0 -41 -15.5 -74t-42.5 -56.5t-63 -36.5t-77 -13q-31 0 -60.5 9t-54.5 21l22 127q22 -21 45.5 -31t47.5 -10z" />
    <glyph glyph-name="K" unicode="K" horiz-adv-x="509" 
d="M1 0l19 58v521l-20 59h171l-19 -59v-135l106 161l-7 33h183l-49 -38l-142 -209l167 -333l49 -58h-153l-139 278l-15 -21v-199l20 -58h-171v0v0z" />
    <glyph glyph-name="L" unicode="L" horiz-adv-x="419" 
d="M336 0h-335l21 58v521l-22 59h170l-17 -59v-470h160l46 21l-23 -130v0v0z" />
    <glyph glyph-name="M" unicode="M" horiz-adv-x="624" 
d="M542 579v-521l20 -58h-174l21 58v277l-127 -255l-128 256v-278l21 -58h-174l21 58v521l-22 59h155l127 -279l128 279h154l-22 -59v0v0z" />
    <glyph glyph-name="N" unicode="N" horiz-adv-x="556" 
d="M344 275v304l-20 59h171l-18 -59v-521l19 -58h-152l-192 363v-305l20 -58h-171l19 58v521l-20 59h152l192 -363v0v0z" />
    <glyph glyph-name="O" unicode="O" horiz-adv-x="643" 
d="M0 322q0 61 21 119t59.5 102t92 71t119.5 27q68 0 122 -28t91.5 -73.5t57.5 -102.5t20 -115t-20 -116t-57.5 -104.5t-91.5 -75.5t-122 -29q-69 0 -123 29t-91.5 75.5t-57.5 104.5t-20 116zM132 322q0 -32 9.5 -70t29 -71t50 -55.5t71.5 -22.5t71.5 22.5t50 55.5t29 71
t9.5 70q0 31 -9.5 69.5t-29 71.5t-50 55.5t-71.5 22.5t-71.5 -21.5t-50 -54.5t-29 -71.5t-9.5 -71.5z" />
    <glyph glyph-name="P" unicode="P" horiz-adv-x="464" 
d="M197 252h-44v-194l21 -58h-173l21 58v521l-22 59h206q195 0 197 -193q0 -45 -16 -81t-43.5 -60.5t-65.5 -38t-81 -13.5zM172 525h-19v-163h29q101 0 101 88q0 47 -30 62q-11 7 -33 10t-48 3z" />
    <glyph glyph-name="Q" unicode="Q" horiz-adv-x="643" 
d="M0 322q0 61 21 118.5t59.5 102t92.5 71.5t119 27q68 0 122 -28t91.5 -73.5t57.5 -102.5t20 -115q0 -52 -15.5 -103.5t-45.5 -95.5t-73.5 -76t-98.5 -44v-7l20 -58h-156l18 58v7q-55 12 -98 44t-73 76t-45.5 96t-15.5 103zM132 322q0 -25 6 -55t18.5 -58.5t31 -52.5
t44.5 -38v59h118v-60q26 14 45.5 38.5t32 53t18.5 58.5t6 55q0 31 -9.5 69.5t-29 71.5t-50 55.5t-71.5 22.5t-71.5 -21.5t-50 -54t-29 -71t-9.5 -72.5z" />
    <glyph glyph-name="R" unicode="R" horiz-adv-x="496" 
d="M164 252h-11v-194l21 -58h-173l21 58v521l-22 59h206q195 0 197 -193q1 -64 -30.5 -108.5t-82.5 -66.5l97 -213l49 -57h-159zM153 362h29q101 0 101 88q0 47 -30 62q-11 7 -33 10t-48 3h-19v-163z" />
    <glyph glyph-name="S" unicode="S" horiz-adv-x="448" 
d="M198 641q35 0 69 -9t63 -21l-26 -129q-50 42 -106 42q-27 0 -46 -19.5t-19 -45.5q0 -16 19 -29t47 -28t61.5 -33t61.5 -44t47 -62t19 -86q0 -43 -20 -76.5t-52 -56.5t-71 -35t-77 -12q-44 0 -89 9t-76 23l26 150q64 -61 141 -61q40 0 62.5 17t23.5 42q0 26 -19 44.5
t-47.5 34.5t-61.5 32.5t-61.5 39t-47.5 54t-19 77.5q0 41 15.5 74.5t42.5 57.5t63 37t77 13z" />
    <glyph glyph-name="T" unicode="T" horiz-adv-x="494" 
d="M388 529h-105v-470l18 -59h-171l21 58v471h-104l-47 -29v138h434v-132l-46 23v0v0z" />
    <glyph glyph-name="U" unicode="U" horiz-adv-x="508" 
d="M20 579l-20 59h171l-19 -59v-410q0 -27 23 -46t50 -19q13 0 26 5t23 14t16.5 20.5t6.5 25.5v410l-20 59h171l-18 -59v-410q0 -35 -16.5 -65.5t-45 -53.5t-65.5 -36.5t-78 -13.5t-78 13.5t-65.5 36.5t-45.5 53.5t-17 65.5z" />
    <glyph glyph-name="V" unicode="V" horiz-adv-x="563" 
d="M146 0l7 58l-119 521l-34 59h173l-5 -59l88 -449l89 449l-5 59h173l-34 -59l-119 -521l7 -58h-221v0v0z" />
    <glyph glyph-name="W" unicode="W" horiz-adv-x="837" 
d="M146 0l7 58l-119 521l-34 59h173l-5 -59l88 -449l82 449l-34 59h179l-35 -59l82 -449l89 449l-5 59h173l-34 -59l-119 -521l7 -58h-221l7 58l-34 164l-33 -164l7 -58h-221v0v0z" />
    <glyph glyph-name="X" unicode="X" horiz-adv-x="526" 
d="M0 0l45 58l127 283l-107 238l-45 59h171l6 -59l41 -91l41 91l7 59h171l-46 -59l-107 -238l128 -283l44 -58h-171l-6 58l-61 135l-61 -135l-6 -58h-171v0v0z" />
    <glyph glyph-name="Y" unicode="Y" horiz-adv-x="542" 
d="M0 638v0h171l6 -58l69 -144l69 144l7 58h170l-44 -58l-135 -283v-239l19 -58h-171l19 58v239l-135 283l-45 58v0z" />
    <glyph glyph-name="Z" unicode="Z" horiz-adv-x="465" 
d="M390 529l-257 -420h198l74 21l-23 -130h-382v109l257 420h-167l-74 -22v131h374v-109v0v0z" />
    <glyph glyph-name="bracketleft" unicode="[" horiz-adv-x="227" 
d="M0 -64v766h167v-64h-103v-638h103v-64h-167v0v0z" />
    <glyph glyph-name="backslash" unicode="\" horiz-adv-x="329" 
d="M269 0v0h-64l-205 638h64z" />
    <glyph glyph-name="bracketright" unicode="]" horiz-adv-x="227" 
d="M167 -64v0h-167v64h103v638h-103v64h167v-766z" />
    <glyph glyph-name="asciicircum" unicode="^" horiz-adv-x="310" 
d="M0 652l125 58l125 -58l-27 -83l-98 70l-98 -70l-27 83v0v0z" />
    <glyph glyph-name="underscore" unicode="_" horiz-adv-x="530" 
d="M470 0v-64h-470v64h470v0v0z" />
    <glyph glyph-name="grave" unicode="`" horiz-adv-x="221" 
d="M0 687h106l55 -98h-62v0z" />
    <glyph glyph-name="a" unicode="a" horiz-adv-x="534" 
d="M242 427v0l-46 -228h92zM304 119v0h-124l-12 -61l5 -58h-173l34 59l105 440l-8 58h222l-7 -58l104 -440l34 -59h-173l6 58z" />
    <glyph glyph-name="b" unicode="b" horiz-adv-x="465" 
d="M230 0h-230l22 58v440l-21 59h238q26 0 50 -6.5t43 -19.5t31.5 -33t15.5 -47q2 -18 2 -36.5t-4 -36.5t-12.5 -33.5t-23.5 -27.5q66 -38 63 -144q-3 -78 -48.5 -125.5t-125.5 -47.5zM193 459h-40v-105h38q65 0 65 52q0 54 -63 53zM194 242h-41v-137h51q72 0 72 70
q0 67 -82 67z" />
    <glyph glyph-name="c" unicode="c" horiz-adv-x="449" 
d="M364 11q-41 -13 -85.5 -14t-86.5 10q-44 12 -79.5 39t-60.5 63.5t-38.5 80t-13.5 88.5q0 51 16.5 97.5t46.5 83.5t71.5 62.5t91.5 34.5q15 3 35.5 4t42.5 -0.5t43.5 -5.5t37.5 -11l-21 -122q-32 21 -69.5 28t-72.5 -10q-88 -45 -88 -161q0 -32 9 -62t26.5 -53t43.5 -37
t61 -14q66 0 115 44z" />
    <glyph glyph-name="d" unicode="d" horiz-adv-x="517" 
d="M198 438h-44v-320h45q64 0 97 53q27 43 27 111q0 34 -6.5 62.5t-21 49.5t-38.5 32.5t-59 11.5zM197 0h-196l21 58v440l-22 59h184q62 0 112.5 -17t86 -50.5t55 -84.5t19.5 -118q0 -65 -16.5 -118t-49 -90.5t-81 -58t-113.5 -20.5z" />
    <glyph glyph-name="e" unicode="e" horiz-adv-x="407" 
d="M324 0h-323l20 58v440l-21 59h340v-128l-59 20h-128v-145h96l46 16v-110l-47 14h-95v-115h148l46 21l-23 -130v0v0z" />
    <glyph glyph-name="f" unicode="f" horiz-adv-x="399" 
d="M339 429l-58 20h-128v-145h95l46 16v-110l-47 14h-94v-166l20 -58h-172l20 58v440l-21 59h339v-128v0v0z" />
    <glyph glyph-name="g" unicode="g" horiz-adv-x="502" 
d="M442 286v-289l-52 28q-27 -12 -60.5 -21t-74.5 -7q-100 5 -167 69q-43 42 -65 98.5t-22 115t21.5 114t66.5 97.5q33 29 70.5 45t78 21.5t82 1t82.5 -16.5l-21 -119q-34 23 -77 29.5t-79 -10.5q-89 -48 -89 -163q0 -72 39 -120q27 -33 65 -42.5t77 -1.5v113l-19 58h144z
" />
    <glyph glyph-name="h" unicode="h" horiz-adv-x="511" 
d="M1 0l19 58v440l-20 59h171l-19 -59v-299h147v299l-20 59h171l-18 -59v-440l19 -58h-171l19 58v61h-147v-61l20 -58h-171v0v0z" />
    <glyph glyph-name="i" unicode="i" 
d="M1 0l19 58v440l-20 59h171l-19 -59v-440l20 -58h-171v0v0z" />
    <glyph glyph-name="j" unicode="j" horiz-adv-x="385" 
d="M304 499v-336q0 -66 -38 -107t-99 -52q-46 -9 -87.5 0.5t-79.5 25.5l22 127q44 -42 93 -41q30 0 45 16.5t15 39.5v327l-20 58h170z" />
    <glyph glyph-name="k" unicode="k" horiz-adv-x="494" 
d="M279 0l-113 227l-17 -26v-143l20 -58h-168l19 58v441l-20 58h168l-19 -59v-110l89 137l-6 32h182l-49 -37l-115 -170l154 -311l40 -39h-165v0v0z" />
    <glyph glyph-name="l" unicode="l" horiz-adv-x="411" 
d="M328 0h-327l21 58v440l-22 59h170l-17 -59v-389h152l46 21l-23 -130v0v0z" />
    <glyph glyph-name="m" unicode="m" horiz-adv-x="624" 
d="M542 498v-440l20 -58h-174l21 58v197l-127 -255l-128 256v-198l21 -58h-174l21 58v440l-22 59h155l127 -278l128 278h154l-22 -59v0v0z" />
    <glyph glyph-name="n" unicode="n" horiz-adv-x="512" 
d="M303 0l-150 286l1 -228l20 -58h-173l21 58v440l-22 59h154l144 -273v214l-20 59h174l-21 -59v-440l20 -58h-148v0v0z" />
    <glyph glyph-name="o" unicode="o" horiz-adv-x="546" 
d="M243 560q58 0 103.5 -25.5t76.5 -65.5t47 -90.5t16 -99.5q0 -50 -16 -100t-47 -90.5t-76.5 -66t-103.5 -25.5t-103.5 25.5t-76.5 66t-47 90.5t-16 100q0 51 16.5 101.5t48 90t76.5 64.5t102 25zM122 279q0 -25 7 -55t22 -56t38 -43.5t54 -17.5t54 17.5t38 43.5t22 56
t7 55q0 24 -7 54t-22 56t-38 43.5t-54 17.5q-32 0 -54.5 -17.5t-37.5 -43.5t-22 -55.5t-7 -54.5z" />
    <glyph glyph-name="p" unicode="p" horiz-adv-x="456" 
d="M189 172h-36v-114l21 -58h-173l21 58v440l-22 59h198q196 0 197 -193q0 -45 -16 -80.5t-43.5 -60t-65.5 -38t-81 -13.5zM172 444h-19v-162h21q101 0 101 88q0 45 -30 62q-21 12 -73 12z" />
    <glyph glyph-name="q" unicode="q" horiz-adv-x="546" 
d="M243 560q58 0 103.5 -25.5t76.5 -65.5t47 -90.5t16 -99.5q0 -43 -12 -87t-35.5 -81.5t-58 -65.5t-79.5 -40v-6l20 -58h-156l19 58v6q-44 12 -78.5 40t-58 65.5t-35.5 81.5t-12 87q0 51 16.5 101.5t48 90t76.5 64.5t102 25zM122 279q0 -18 4 -39t11.5 -41.5t19 -38.5
t27.5 -31v51h117v-52q16 13 28 31.5t19.5 39t11.5 41.5t4 39q0 24 -7 54t-22 56t-38 43.5t-54 17.5t-54 -17t-38 -43t-22 -56t-7 -55z" />
    <glyph glyph-name="r" unicode="r" horiz-adv-x="496" 
d="M153 185v-127l21 -58h-173l21 58v440l-22 59h199q196 0 197 -193q0 -54 -25 -95.5t-76 -60.5l84 -151l57 -57h-159l-102 186q-8 0 -11 -0.5t-11 -0.5zM172 444h-19v-149h21q51 0 74 16q13 9 20 27t7 37t-8 36t-24 24q-21 9 -71 9z" />
    <glyph glyph-name="s" unicode="s" horiz-adv-x="433" 
d="M26 177q66 -61 141 -61q78 0 78 54q0 39 -75 72q-44 19 -72 33.5t-42 25.5q-53 42 -53 114q0 76 53 115q25 19 59 25.5t69.5 4.5t70 -9.5t60.5 -15.5l-24 -137q-59 56 -121 56q-39 0 -39 -30q0 -20 21 -29q14 -5 33.5 -13t45.5 -19q142 -62 142 -175q0 -79 -57 -134
q-36 -36 -80 -49q-24 -7 -55 -8t-64 2.5t-64 11.5t-53 18z" />
    <glyph glyph-name="t" unicode="t" horiz-adv-x="478" 
d="M372 448h-97v-389l18 -59h-171l21 58v390h-96l-47 -29v138h418v-132l-46 23v0v0z" />
    <glyph glyph-name="u" unicode="u" horiz-adv-x="483" 
d="M402 499v-335q0 -48 -20.5 -82t-54.5 -54q-23 -14 -52.5 -21t-60 -7t-60 6t-53.5 19q-36 20 -58.5 55t-22.5 84v335l-20 58h169l-19 -58v-326q0 -28 19 -42t42.5 -14t42.5 14t19 42v326l-19 58h169z" />
    <glyph glyph-name="v" unicode="v" horiz-adv-x="534" 
d="M242 117l75 382l-6 58h173l-34 -59l-104 -440l7 -58h-222l8 58l-105 440l-34 59h173l-5 -58l74 -382v0v0z" />
    <glyph glyph-name="w" unicode="w" horiz-adv-x="742" 
d="M667 532l-92 -495l8 -37h-206l8 37l-42 230l-43 -230l9 -37h-199l8 37l-94 495l-24 25h174l-7 -38l43 -289l63 290l-9 37h164l-8 -35l56 -292l43 289l-8 38h181l-25 -25v0v0z" />
    <glyph glyph-name="x" unicode="x" horiz-adv-x="493" 
d="M269 0l10 37l-58 170l-57 -169l9 -38h-173l34 36l100 262l-84 234l-30 25h163l-10 -24l50 -145l48 145l-9 24h157l-31 -25l-84 -233l102 -258l37 -41h-174v0v0z" />
    <glyph glyph-name="y" unicode="y" horiz-adv-x="520" 
d="M429 532l-119 -297v-177l21 -58h-184l22 58v174l-128 300l-41 25h183l-11 -25l67 -182l65 182l-11 25h177l-41 -25v0v0z" />
    <glyph glyph-name="z" unicode="z" horiz-adv-x="434" 
d="M351 0h-351v105l211 343h-129l-74 -21v130h350v-105l-205 -343h147l74 21l-23 -130v0v0z" />
    <glyph glyph-name="braceleft" unicode="{" horiz-adv-x="272" 
d="M44 611q0 38 27 64.5t65 26.5h76v-64h-76q-11 0 -19 -8t-8 -19v-233q0 -34 -22 -59q22 -25 22 -59v-233q0 -11 8 -19t19 -8h76v-64h-76q-38 0 -65 26.5t-27 64.5v233q0 11 -7.5 19t-18.5 8h-18v64h18q11 0 18.5 8t7.5 19v233z" />
    <glyph glyph-name="bar" unicode="|" horiz-adv-x="124" 
d="M64 -133h-64v904h64v-904v0v0z" />
    <glyph glyph-name="braceright" unicode="}" horiz-adv-x="272" 
d="M168 378q0 -11 7.5 -19t18.5 -8h18v-64h-18q-11 0 -18.5 -8t-7.5 -19v-233q0 -38 -27 -64.5t-65 -26.5h-76v64h76q11 0 19 8t8 19v233q0 34 22 59q-22 25 -22 59v233q0 11 -8 19t-19 8h-76v64h76q38 0 65 -26.5t27 -64.5v-233v0z" />
    <glyph glyph-name="asciitilde" unicode="~" horiz-adv-x="342" 
d="M168 229q-28 0 -54 9.5t-54 9.5q-15 0 -29.5 -3t-30.5 -16q0 50 28.5 75t74.5 25q13 0 29 -3t31.5 -7t31 -7t27.5 -3q14 0 30 4.5t30 15.5q0 -27 -9.5 -46t-25.5 -31t-36.5 -17.5t-42.5 -5.5z" />
    <glyph glyph-name="exclamdown" unicode="&#xa1;" horiz-adv-x="231" 
d="M86 372q-30 0 -51 21.5t-21 51.5q0 29 21 50.5t51 21.5t51 -21.5t21 -50.5q0 -30 -21 -51.5t-51 -21.5zM144 330l8 -402l19 -59h-171l20 59l8 402h116z" />
    <glyph glyph-name="cent" unicode="&#xa2;" horiz-adv-x="449" 
d="M389 70q-25 -13 -59 -19l17 -51h-171l17 55l-1 1q-44 12 -79.5 39t-60.5 63t-38.5 79.5t-13.5 88.5q0 48 14.5 89t40.5 74t61.5 56.5t77.5 35.5l-19 57h171l-16 -49q16 -2 30 -5.5t25 -8.5l-21 -122q-20 14 -43.5 22t-47.5 8q-32 0 -57.5 -13t-43.5 -35t-28 -50t-10 -59
q0 -32 9 -62t26.5 -53t43.5 -37t61 -14q66 0 115 44v-134z" />
    <glyph glyph-name="sterling" unicode="&#xa3;" horiz-adv-x="404" 
d="M321 0h-306v101q27 38 35 82t6 92h-56l15 88h32q-5 39 -10 76.5t-5 71.5q0 31 15 55t38.5 40t52 24t56.5 8q35 0 69 -8t66 -20l-23 -125q-7 6 -18.5 12.5t-25 12.5t-28.5 9.5t-28 3.5q-22 -1 -34.5 -12t-12.5 -33q0 -32 2.5 -58t5.5 -57h88l-15 -88h-66q3 -44 -2.5 -85
t-22.5 -83h131l64 22z" />
    <glyph glyph-name="yen" unicode="&#xa5;" horiz-adv-x="552" 
d="M100 376h42l-97 204l-45 58h171l6 -58l69 -144l69 144l7 58h170l-44 -58l-98 -204h57l-15 -87h-79v-40h94l-15 -87h-79v-104l19 -58h-171l19 58v104h-95l15 87h80v40h-95l15 87v0v0z" />
    <glyph glyph-name="brokenbar" unicode="&#xa6;" horiz-adv-x="124" 
d="M64 -133h-64v419h64v-419v0v0zM0 350v420h64v-420h-64v0v0z" />
    <glyph glyph-name="section" unicode="&#xa7;" horiz-adv-x="441" 
d="M248 224q5 12 5 23q0 39 -75 72q-2 1 -5 2l-6 2q-36 0 -36 -29q0 -20 21 -30q14 -5 33.5 -12.5t45.5 -18.5q5 -2 9 -4.5t8 -4.5zM48 393q-37 38 -37 99q0 74 53 115q25 19 59 25t70 4.5t70 -9t60 -15.5l-24 -138q-57 56 -121 56q-39 0 -39 -29q0 -20 21 -30
q14 -5 33.5 -12.5t45.5 -18.5q142 -63 142 -175q0 -65 -39 -114q31 -40 31 -94q0 -77 -57 -134q-36 -35 -80 -48q-24 -7 -55 -8t-64 2.5t-64 11.5t-53 18l26 148q64 -61 141 -61q78 0 78 54q0 39 -75 71q-44 20 -72 34.5t-42 25.5q-53 42 -53 114q0 69 45 108z" />
    <glyph glyph-name="dieresis" unicode="&#xa8;" horiz-adv-x="289" 
d="M44 682q19 0 31.5 -13t12.5 -31q0 -19 -12.5 -31.5t-31.5 -12.5q-18 0 -31 12.5t-13 31.5q0 18 13 31t31 13zM185 682q18 0 31 -13t13 -31q0 -19 -13 -31.5t-31 -12.5q-19 0 -32 12.5t-13 31.5q0 18 13 31t32 13z" />
    <glyph glyph-name="copyright" unicode="&#xa9;" horiz-adv-x="543" 
d="M292 113q-20 -7 -42 -7t-42 5q-21 6 -38.5 19t-29.5 30.5t-18.5 38.5t-6.5 42q0 50 30.5 87.5t79.5 46.5q14 3 37.5 2t39.5 -8l-10 -59q-15 10 -33.5 13.5t-35.5 -4.5q-43 -22 -43 -78q0 -31 17 -55.5t51 -24.5q33 0 56 21zM242 63q37 0 69 14t56 38.5t38 57t14 69.5
t-14 69.5t-38 56.5t-56.5 38t-68.5 14q-37 0 -69.5 -14t-57 -38t-38.5 -56.5t-14 -69.5t14 -69.5t38.5 -57t57 -38.5t69.5 -14zM0 242q0 50 19 94t52 76.5t77 51.5t94 19q49 0 93 -19t77 -51.5t52 -76.5t19 -94t-19 -94t-51.5 -77t-76.5 -52t-94 -19t-94 19t-77 52t-52 77
t-19 94z" />
    <glyph glyph-name="ordfeminine" unicode="&#xaa;" horiz-adv-x="220" 
d="M80 671v0l-17 -90h34zM102 552v0h-45l-9 -43h-48l48 201h64l48 -201h-48z" />
    <glyph glyph-name="guillemotleft" unicode="&#xab;" horiz-adv-x="439" 
d="M0 279l126 180l89 -59l-115 -121l115 -121l-89 -59l-126 180v0v0zM164 279l126 180l89 -59l-115 -121l115 -121l-89 -59l-126 180v0v0z" />
    <glyph glyph-name="uni00AD" unicode="&#xad;" horiz-adv-x="309" 
d="M0 318h249v-79h-249v79z" />
    <glyph glyph-name="registered" unicode="&#xae;" horiz-adv-x="261" 
d="M94 595v-30h-21v89h30q31 0 31 -31q0 -19 -16 -25l19 -33h-22l-16 30h-5zM94 612h5q7 0 12 3q4 3 4 10t-5 9q-4 2 -11 2h-5v-24zM101 542q28 0 48 19.5t20 48.5q0 28 -20 48t-48 20q-29 0 -49 -20t-20 -48t20 -48t49 -20zM0 610q0 21 8 39t21.5 31.5t32 21.5t39.5 8
q42 0 71 -29t29 -71q0 -21 -8 -39.5t-21.5 -32t-31.5 -21.5t-39 -8t-39.5 8t-32 22t-21.5 32t-8 39z" />
    <glyph glyph-name="degree" unicode="&#xb0;" 
d="M86 724q18 0 33.5 -7t27.5 -18.5t18.5 -27t6.5 -33.5q0 -36 -25 -61t-61 -25q-18 0 -33.5 7t-27 18.5t-18.5 27t-7 33.5t7 33.5t18.5 27t27 18.5t33.5 7zM86 592q19 0 32.5 13t13.5 33q0 19 -13.5 32.5t-32.5 13.5t-32.5 -13.5t-13.5 -32.5t13.5 -32.5t32.5 -13.5z" />
    <glyph glyph-name="plusminus" unicode="&#xb1;" horiz-adv-x="322" 
d="M87 129v79h-87l16 88h71v79h88v-79h87l-15 -88h-72v-79h-88v0v0zM247 64v-64h-231v64h231v0v0z" />
    <glyph glyph-name="twosuperior" unicode="&#xb2;" horiz-adv-x="182" 
d="M122 543v-34h-122v34q0 16 6 28.5t15 22.5t20.5 18.5t23.5 17.5q7 5 11.5 10t4.5 13q-1 8 -8 14t-19 6q-21 0 -37 -13l-8 44q10 3 21.5 5t22.5 2q24 0 46.5 -15.5t22.5 -42.5q0 -25 -12.5 -38.5t-27.5 -24t-27.5 -20.5t-12.5 -27h80z" />
    <glyph glyph-name="threesuperior" unicode="&#xb3;" horiz-adv-x="174" 
d="M10 671v41h25q32 0 54.5 -14.5t22.5 -48.5q0 -12 -5.5 -21.5t-13.5 -17.5q8 -8 14.5 -18.5t6.5 -23.5q0 -15 -7 -26t-18.5 -18.5t-25 -11t-26.5 -3.5q-17 0 -37 5l7 42q8 -5 17.5 -6.5t17.5 -1.5q13 0 21 6t9 14q0 14 -13 18t-24 4v38q11 0 23 5t12 16q0 14 -9 21.5
t-23 7.5t-28 -7z" />
    <glyph glyph-name="acute" unicode="&#xb4;" horiz-adv-x="221" 
d="M62 589v0h-62l55 98h106l-99 -98v0z" />
    <glyph glyph-name="mu" unicode="&#xb5;" horiz-adv-x="483" 
d="M2 -133l18 58v573l-20 58h169l-19 -58v-326q0 -28 19 -42t42.5 -14t42.5 14t19 42v326l-19 58h169l-21 -58v-335q0 -48 -20.5 -82t-54.5 -54q-36 -21 -84.5 -26.5t-92.5 5.5v-81l19 -58h-167z" />
    <glyph glyph-name="paragraph" unicode="&#xb6;" horiz-adv-x="740" 
d="M339 -75l21 -58h-173l21 58v327q-47 0 -85.5 11t-65.5 34.5t-42 59.5t-14 87q0 48 9 84.5t29 60.5t53 36t82 12h506v-137l-46 28h-81v-603l20 -58h-171l18 59v602h-81v-603z" />
    <glyph glyph-name="periodcentered" unicode="&#xb7;" horiz-adv-x="205" 
d="M72 351q30 0 51.5 -21t21.5 -51t-21.5 -51.5t-51.5 -21.5t-51 21.5t-21 51.5t21 51t51 21z" />
    <glyph glyph-name="cedilla" unicode="&#xb8;" horiz-adv-x="255" 
d="M57 0h70q0 -32 10.5 -53t23.5 -37.5t23.5 -32.5t10.5 -38q0 -19 -9 -32t-23 -21t-31 -11.5t-33 -3.5q-26 0 -53 7.5t-46 19.5l14 80q21 -22 41 -34t40 -12q14 0 19 5t5 10q0 17 -9.5 29t-21.5 27t-21.5 37t-9.5 60z" />
    <glyph glyph-name="onesuperior" unicode="&#xb9;" horiz-adv-x="111" 
d="M9 676h-9l9 34h42v-201h-42v167v0v0z" />
    <glyph glyph-name="ordmasculine" unicode="&#xba;" horiz-adv-x="238" 
d="M0 612q0 19 6.5 37t18 32t28 22.5t36.5 8.5q21 0 37.5 -8.5t28 -23t17.5 -32.5t6 -36t-6 -36.5t-17.5 -33.5t-28 -24t-37.5 -9t-37.5 9t-28 24t-17.5 33.5t-6 36.5zM40 612q0 -9 3 -20t9 -20.5t15 -16t22 -6.5q12 0 21.5 6.5t15.5 16t9 20.5t3 20t-3 20t-9 20t-15.5 15.5
t-21.5 6.5t-21.5 -6t-15.5 -15.5t-9 -20.5t-3 -20z" />
    <glyph glyph-name="guillemotright" unicode="&#xbb;" horiz-adv-x="439" 
d="M379 279v0l-126 -180l-89 59l115 121l-115 121l89 59zM215 279v0l-126 -180l-89 59l115 121l-115 121l89 59z" />
    <glyph glyph-name="onequarter" unicode="&#xbc;" horiz-adv-x="512" 
d="M50 -1l205 638h64l-204 -638h-65v0v0zM338 338l-109 -205v-57h126v-45l-10 -31h91l-11 31v45l27 -8v73l-27 -8v205h-87v0v0zM355 133h-56l56 106v-106v0v0zM16 579h-16l16 58h70v-307l10 -31h-90l10 31v249v0v0z" />
    <glyph glyph-name="onehalf" unicode="&#xbd;" horiz-adv-x="518" 
d="M50 -1l205 638h64l-204 -638h-65zM16 579h-16l16 58h70v-307l10 -31h-90l10 31v249zM435 56l23 11v-68h-206v57q0 28 9.5 48.5t25.5 37.5t35.5 31t39.5 29q11 8 18.5 16.5t7.5 22.5q-1 13 -13 23t-33 10q-33 0 -61 -21l-13 73q16 5 35.5 8.5t37.5 3.5q20 0 41 -6.5
t38 -19.5t27.5 -31t10.5 -40q0 -28 -10 -47t-25 -33t-32.5 -25t-32.5 -22.5t-25 -25t-10 -32.5h112z" />
    <glyph glyph-name="threequarters" unicode="&#xbe;" horiz-adv-x="589" 
d="M16 569v68h43q27 0 50 -6t40.5 -18.5t27.5 -32.5t10 -48q0 -20 -9.5 -36.5t-21.5 -29.5q14 -13 24 -31t10 -39q0 -25 -11.5 -43.5t-30 -30.5t-41.5 -18t-45 -6q-30 0 -62 8l12 70q13 -7 29 -10.5t29 -3.5q21 0 35.5 10t14.5 24q0 11 -6 18.5t-15 11.5t-20 5.5t-20 1.5v64
q9 0 19 2t18.5 6t14 10.5t5.5 16.5q0 23 -15 36t-38 13q-12 0 -24 -3.5t-23 -8.5zM127 -1l204 638h65l-205 -638h-64zM414 338l-109 -205v-57h127v-45l-10 -31h90l-10 31v45l27 -8v73l-27 -8v205h-88zM432 133h-57l57 106v-106z" />
    <glyph glyph-name="questiondown" unicode="&#xbf;" horiz-adv-x="395" 
d="M287 330q0 -35 -11.5 -62t-28.5 -48.5t-36.5 -40t-36.5 -37t-28.5 -38t-11.5 -44.5q0 -15 8 -26.5t20 -19t26.5 -11t27.5 -3.5q25 0 49.5 9.5t44.5 24.5l25 -140q-27 -7 -56.5 -11t-58.5 -4q-38 0 -77 12.5t-71 36t-52 57.5t-20 77q0 35 11.5 61t28.5 47t37.5 39t37.5 36
t28.5 38.5t11.5 46.5h132zM221 372q-30 0 -51.5 21.5t-21.5 51.5q0 29 21.5 50.5t51.5 21.5t51 -21.5t21 -50.5q0 -30 -21 -51.5t-51 -21.5z" />
    <glyph glyph-name="Agrave" unicode="&#xc0;" horiz-adv-x="563" 
d="M367 638l-7 -58l119 -521l34 -59h-173l5 58l-20 101h-137l-20 -101l5 -58h-173l34 59l119 521l-7 58h221zM309 239l-53 268l-53 -268h106zM128 808h106l55 -98h-62z" />
    <glyph glyph-name="Aacute" unicode="&#xc1;" horiz-adv-x="563" 
d="M367 638l-7 -58l119 -521l34 -59h-173l5 58l-20 101h-137l-20 -101l5 -58h-173l34 59l119 521l-7 58h221zM309 239l-53 268l-53 -268h106zM284 710h-62l55 98h106z" />
    <glyph glyph-name="Acircumflex" unicode="&#xc2;" horiz-adv-x="563" 
d="M367 638l-7 -58l119 -521l34 -59h-173l5 58l-20 101h-137l-20 -101l5 -58h-173l34 59l119 521l-7 58h221zM309 239l-53 268l-53 -268h106zM196 710l-20 46l80 34l81 -34l-20 -46l-61 36z" />
    <glyph glyph-name="Atilde" unicode="&#xc3;" horiz-adv-x="563" 
d="M146 638l7 -58l-119 -521l-34 -59h173l-5 58l20 101h137l20 -101l-5 -58h173l-34 59l-119 521l7 58h-221zM203 239l53 268l53 -268h-106zM275 710q-20 0 -38 7.5t-38 7.5q-11 0 -21.5 -2t-21.5 -13q0 40 20.5 60t52.5 20q10 0 21 -2.5t22.5 -5.5t22 -5.5t19.5 -2.5
q10 0 21.5 3.5t21.5 12.5q0 -44 -25 -62t-57 -18z" />
    <glyph glyph-name="Adieresis" unicode="&#xc4;" horiz-adv-x="563" 
d="M146 638l7 -58l-119 -521l-34 -59h173l-5 58l20 101h137l20 -101l-5 -58h173l-34 59l-119 521l7 58h-221zM203 239l53 268l53 -268h-106zM327 798q18 0 31 -13t13 -31q0 -19 -13 -31.5t-31 -12.5q-19 0 -32 12.5t-13 31.5q0 18 13 31t32 13zM186 798q19 0 31.5 -13
t12.5 -31q0 -19 -12.5 -31.5t-31.5 -12.5q-18 0 -31 12.5t-13 31.5q0 18 13 31t31 13z" />
    <glyph glyph-name="Aring" unicode="&#xc5;" horiz-adv-x="563" 
d="M146 638l7 -58l-119 -521l-34 -59h173l-5 58l20 101h137l20 -101l-5 -58h173l-34 59l-119 521l7 58h-221zM256 862q18 0 33.5 -7t27.5 -18.5t18.5 -27t6.5 -33.5q0 -36 -25 -61t-61 -25q-18 0 -33.5 7t-27 18.5t-18.5 27t-7 33.5t7 33.5t18.5 27t27 18.5t33.5 7zM203 239
l53 268l53 -268h-106zM256 730q19 0 32.5 13t13.5 33q0 19 -13.5 32.5t-32.5 13.5t-32.5 -13.5t-13.5 -32.5t13.5 -32.5t32.5 -13.5z" />
    <glyph glyph-name="AE" unicode="&#xc6;" horiz-adv-x="873" 
d="M146 638v0h221l-7 -58l119 -521v520l-21 59h348v-129l-59 20h-136v-209h104l46 15v-109l-47 13h-103v-130h156l46 22l-23 -131h-450l5 58l-20 101h-137l-20 -101l5 -58h-173l34 59l119 521zM203 239v0h106l-53 268z" />
    <glyph glyph-name="Ccedilla" unicode="&#xc7;" horiz-adv-x="474" 
d="M299 116q67 0 115 45l-26 -150q-27 -9 -57 -12q2 -29 13 -48.5t23 -35t22 -31.5t10 -37q0 -19 -9 -32t-23.5 -21t-31.5 -11.5t-32 -3.5q-27 0 -54 7.5t-46 19.5l14 80q21 -22 41 -34t40 -12q14 0 19.5 5t5.5 10q0 16 -9.5 28t-20.5 26t-21 34.5t-11 55.5
q-61 7 -109.5 35.5t-82 71t-51.5 96.5t-18 113q0 62 20.5 121t59.5 104.5t94.5 73t124.5 27.5q29 0 59 -4t52 -14l-21 -131q-20 14 -43.5 22t-46.5 8q-41 0 -72 -18t-52 -47.5t-31.5 -66.5t-10.5 -75t10.5 -74t31.5 -64t52 -44.5t72 -16.5z" />
    <glyph glyph-name="Egrave" unicode="&#xc8;" horiz-adv-x="415" 
d="M332 0h-331l20 58v521l-21 59h348v-129l-59 20h-136v-209h104l46 15v-109l-47 13h-103v-130h156l46 21zM47 808h106l55 -98h-62z" />
    <glyph glyph-name="Eacute" unicode="&#xc9;" horiz-adv-x="415" 
d="M332 0h-331l20 58v521l-21 59h348v-129l-59 20h-136v-209h104l46 15v-109l-47 13h-103v-130h156l46 21zM206 710h-62l55 98h106z" />
    <glyph glyph-name="Ecircumflex" unicode="&#xca;" horiz-adv-x="415" 
d="M332 0h-331l20 58v521l-21 59h348v-129l-59 20h-136v-209h104l46 15v-109l-47 13h-103v-130h156l46 21zM117 710l-20 46l80 34l81 -34l-20 -46l-61 36z" />
    <glyph glyph-name="Edieresis" unicode="&#xcb;" horiz-adv-x="415" 
d="M332 0h-331l20 58v521l-21 59h348v-129l-59 20h-136v-209h104l46 15v-109l-47 13h-103v-130h156l46 21zM248 798q18 0 31 -13t13 -31q0 -19 -13 -31.5t-31 -12.5q-19 0 -32 12.5t-13 31.5q0 18 13 31t32 13zM107 798q19 0 31.5 -13t12.5 -31q0 -19 -12.5 -31.5
t-31.5 -12.5q-18 0 -31 12.5t-13 31.5q0 18 13 31t31 13z" />
    <glyph glyph-name="Igrave" unicode="&#xcc;" 
d="M1 0l19 58v521l-20 59h171l-19 -59v-521l20 -58h-171zM-42 808h106l55 -98h-62z" />
    <glyph glyph-name="Iacute" unicode="&#xcd;" 
d="M53 710l55 98h106l-99 -98h-62zM1 0l19 58v521l-20 59h171l-19 -59v-521l20 -58h-171v0v0z" />
    <glyph glyph-name="Icircumflex" unicode="&#xce;" 
d="M1 0l19 58v521l-20 59h171l-19 -59v-521l20 -58h-171zM26 710l-20 46l80 34l81 -34l-20 -46l-61 36z" />
    <glyph glyph-name="Idieresis" unicode="&#xcf;" 
d="M1 0l19 58v521l-20 59h171l-19 -59v-521l20 -58h-171zM157 798q18 0 31 -13t13 -31q0 -19 -13 -31.5t-31 -12.5q-19 0 -32 12.5t-13 31.5q0 18 13 31t32 13zM16 798q19 0 31.5 -13t12.5 -31q0 -19 -12.5 -31.5t-31.5 -12.5q-18 0 -31 12.5t-13 31.5q0 18 13 31t31 13z
" />
    <glyph glyph-name="Eth" unicode="&#xd0;" horiz-adv-x="560" 
d="M36 0l19 58v217h-55l15 88h40v216l-20 59h175q74 0 128.5 -24.5t90.5 -67.5t53.5 -100t17.5 -123q0 -64 -18.5 -122.5t-55 -103t-90.5 -71t-125 -26.5h-175zM187 118h24q43 0 73 18.5t48.5 48t26.5 66t8 73.5q0 43 -8 79t-27 62t-49 40.5t-73 14.5h-23v-157h55l-15 -88
h-40v-157z" />
    <glyph glyph-name="Ntilde" unicode="&#xd1;" horiz-adv-x="556" 
d="M344 275v304l-20 59h171l-18 -59v-521l19 -58h-152l-192 363v-305l20 -58h-171l19 58v521l-20 59h152zM267 710q-20 0 -38 7.5t-38 7.5q-11 0 -21.5 -2t-21.5 -13q0 40 20.5 60t52.5 20q10 0 21 -2.5t22.5 -5.5t22 -5.5t19.5 -2.5q10 0 21.5 3.5t21.5 12.5q0 -44 -25 -62
t-57 -18z" />
    <glyph glyph-name="Ograve" unicode="&#xd2;" horiz-adv-x="643" 
d="M0 322q0 61 21 119t59.5 102t92 71t119.5 27q68 0 122 -28t91.5 -73.5t57.5 -102.5t20 -115t-20 -116t-57.5 -104.5t-91.5 -75.5t-122 -29q-69 0 -123 29t-91.5 75.5t-57.5 104.5t-20 116zM132 322q0 -32 9.5 -70t29 -71t50 -55.5t71.5 -22.5t71.5 22.5t50 55.5t29 71
t9.5 70q0 31 -9.5 69.5t-29 71.5t-50 55.5t-71.5 22.5t-71.5 -21.5t-50 -54.5t-29 -71.5t-9.5 -71.5zM161 808h106l55 -98h-62z" />
    <glyph glyph-name="Oacute" unicode="&#xd3;" horiz-adv-x="643" 
d="M0 322q0 61 21 119t59.5 102t92 71t119.5 27q68 0 122 -28t91.5 -73.5t57.5 -102.5t20 -115t-20 -116t-57.5 -104.5t-91.5 -75.5t-122 -29q-69 0 -123 29t-91.5 75.5t-57.5 104.5t-20 116zM132 322q0 -32 9.5 -70t29 -71t50 -55.5t71.5 -22.5t71.5 22.5t50 55.5t29 71
t9.5 70q0 31 -9.5 69.5t-29 71.5t-50 55.5t-71.5 22.5t-71.5 -21.5t-50 -54.5t-29 -71.5t-9.5 -71.5zM257 710l55 98h106l-99 -98h-62z" />
    <glyph glyph-name="Ocircumflex" unicode="&#xd4;" horiz-adv-x="643" 
d="M0 322q0 61 21 119t59.5 102t92 71t119.5 27q68 0 122 -28t91.5 -73.5t57.5 -102.5t20 -115t-20 -116t-57.5 -104.5t-91.5 -75.5t-122 -29q-69 0 -123 29t-91.5 75.5t-57.5 104.5t-20 116zM132 322q0 -32 9.5 -70t29 -71t50 -55.5t71.5 -22.5t71.5 22.5t50 55.5t29 71
t9.5 70q0 31 -9.5 69.5t-29 71.5t-50 55.5t-71.5 22.5t-71.5 -21.5t-50 -54.5t-29 -71.5t-9.5 -71.5zM231 710l-20 46l80 34l81 -34l-20 -46l-61 36z" />
    <glyph glyph-name="Otilde" unicode="&#xd5;" horiz-adv-x="643" 
d="M0 322q0 61 21 119t59.5 102t92 71t119.5 27q68 0 122 -28t91.5 -73.5t57.5 -102.5t20 -115t-20 -116t-57.5 -104.5t-91.5 -75.5t-122 -29q-69 0 -123 29t-91.5 75.5t-57.5 104.5t-20 116zM132 322q0 -32 9.5 -70t29 -71t50 -55.5t71.5 -22.5t71.5 22.5t50 55.5t29 71
t9.5 70q0 31 -9.5 69.5t-29 71.5t-50 55.5t-71.5 22.5t-71.5 -21.5t-50 -54.5t-29 -71.5t-9.5 -71.5zM310 710q-20 0 -38 7.5t-38 7.5q-11 0 -21.5 -2t-21.5 -13q0 40 20.5 60t52.5 20q10 0 21 -2.5t22.5 -5.5t22 -5.5t19.5 -2.5q10 0 21.5 3.5t21.5 12.5q0 -44 -25 -62
t-57 -18z" />
    <glyph glyph-name="Odieresis" unicode="&#xd6;" horiz-adv-x="643" 
d="M0 322q0 61 21 119t59.5 102t92 71t119.5 27q68 0 122 -28t91.5 -73.5t57.5 -102.5t20 -115t-20 -116t-57.5 -104.5t-91.5 -75.5t-122 -29q-69 0 -123 29t-91.5 75.5t-57.5 104.5t-20 116zM132 322q0 -32 9.5 -70t29 -71t50 -55.5t71.5 -22.5t71.5 22.5t50 55.5t29 71
t9.5 70q0 31 -9.5 69.5t-29 71.5t-50 55.5t-71.5 22.5t-71.5 -21.5t-50 -54.5t-29 -71.5t-9.5 -71.5zM362 798q18 0 31 -13t13 -31q0 -19 -13 -31.5t-31 -12.5q-19 0 -32 12.5t-13 31.5q0 18 13 31t32 13zM221 798q19 0 31.5 -13t12.5 -31q0 -19 -12.5 -31.5t-31.5 -12.5
q-18 0 -31 12.5t-13 31.5q0 18 13 31t31 13z" />
    <glyph glyph-name="multiply" unicode="&#xd7;" horiz-adv-x="316" 
d="M8 217l57 58l-65 65l63 63l65 -66l65 66l63 -63l-65 -65l57 -58l-63 -62l-57 57l-57 -57l-63 62v0v0z" />
    <glyph glyph-name="Oslash" unicode="&#xd8;" horiz-adv-x="643" 
d="M0 322q0 61 21 118.5t59.5 102t92.5 71.5t119 27q64 0 117.5 -26.5t92 -71t60 -102t21.5 -119.5q0 -61 -21 -119.5t-59 -104t-91.5 -73.5t-119.5 -28q-65 0 -118.5 27.5t-92 73t-60 104t-21.5 120.5zM452 322q0 32 -9.5 70t-29.5 72l-205 -329q17 -15 38 -23.5t46 -8.5
q40 0 70.5 21.5t50 54t29.5 71t10 72.5zM132 322q0 -32 10 -71.5t31 -73.5l205 331q-17 15 -38.5 24.5t-47.5 9.5q-41 0 -71.5 -21.5t-50 -54.5t-29 -71.5t-9.5 -72.5z" />
    <glyph glyph-name="Ugrave" unicode="&#xd9;" horiz-adv-x="508" 
d="M20 579l-20 59h171l-19 -59v-410q0 -27 23 -46t50 -19q13 0 26 5t23 14t16.5 20.5t6.5 25.5v410l-20 59h171l-18 -59v-410q0 -35 -16.5 -65.5t-45 -53.5t-65.5 -36.5t-78 -13.5t-78 13.5t-65.5 36.5t-45.5 53.5t-17 65.5zM97 808h106l55 -98h-62z" />
    <glyph glyph-name="Uacute" unicode="&#xda;" horiz-adv-x="508" 
d="M20 579l-20 59h171l-19 -59v-410q0 -27 23 -46t50 -19q13 0 26 5t23 14t16.5 20.5t6.5 25.5v410l-20 59h171l-18 -59v-410q0 -35 -16.5 -65.5t-45 -53.5t-65.5 -36.5t-78 -13.5t-78 13.5t-65.5 36.5t-45.5 53.5t-17 65.5zM192 710l55 98h106l-99 -98h-62z" />
    <glyph glyph-name="Ucircumflex" unicode="&#xdb;" horiz-adv-x="508" 
d="M20 579l-20 59h171l-19 -59v-410q0 -27 23 -46t50 -19q13 0 26 5t23 14t16.5 20.5t6.5 25.5v410l-20 59h171l-18 -59v-410q0 -35 -16.5 -65.5t-45 -53.5t-65.5 -36.5t-78 -13.5t-78 13.5t-65.5 36.5t-45.5 53.5t-17 65.5zM164 710l-20 46l80 34l81 -34l-20 -46l-61 36z
" />
    <glyph glyph-name="Udieresis" unicode="&#xdc;" horiz-adv-x="508" 
d="M20 579l-20 59h171l-19 -59v-410q0 -27 23 -46t50 -19q13 0 26 5t23 14t16.5 20.5t6.5 25.5v410l-20 59h171l-18 -59v-410q0 -35 -16.5 -65.5t-45 -53.5t-65.5 -36.5t-78 -13.5t-78 13.5t-65.5 36.5t-45.5 53.5t-17 65.5zM295 798q18 0 31 -13t13 -31q0 -19 -13 -31.5
t-31 -12.5q-19 0 -32 12.5t-13 31.5q0 18 13 31t32 13zM154 798q19 0 31.5 -13t12.5 -31q0 -19 -12.5 -31.5t-31.5 -12.5q-18 0 -31 12.5t-13 31.5q0 18 13 31t31 13z" />
    <glyph glyph-name="Yacute" unicode="&#xdd;" horiz-adv-x="542" 
d="M171 638l6 -58l69 -144l69 144l7 58h170l-44 -58l-135 -283v-239l19 -58h-171l19 58v239l-135 283l-45 58h171zM214 710l55 98h106l-99 -98h-62z" />
    <glyph glyph-name="Thorn" unicode="&#xde;" horiz-adv-x="440" 
d="M1 0l19 58v521l-20 59h171l-19 -59v-80q15 5 26 5q43 0 80 -12.5t64 -36t42 -58t15 -78.5t-15 -78.5t-42 -58t-64 -36t-80 -12.5q-11 0 -26 5v-81l20 -58h-171zM152 238q8 -2 13 -2q42 0 68 19.5t28 63.5q-2 43 -28 63t-68 20q-5 0 -13 -2v-162z" />
    <glyph glyph-name="germandbls" unicode="&#xdf;" horiz-adv-x="513" 
d="M216 638q40 0 76 -13t63 -36.5t42.5 -57t15.5 -73.5q0 -67 -41 -114q36 -32 58.5 -72.5t22.5 -91.5q0 -41 -15.5 -74t-42 -56.5t-62.5 -36.5t-77 -13h-20l-20 116q17 0 35.5 2.5t33.5 10t25 19.5t10 32q0 21 -7.5 36t-19.5 27.5t-25 25t-25 29t-19.5 39.5t-7.5 56
q26 0 45 19t19 46q0 26 -19 45t-45 19q-27 0 -46 -19t-19 -45v-458h-151l19 59l-1 399q0 40 15.5 73.5t42.5 57t63 36.5t77 13z" />
    <glyph glyph-name="agrave" unicode="&#xe0;" horiz-adv-x="534" 
d="M180 119l-12 -61l5 -58h-173l34 59l105 440l-8 58h222l-7 -58l104 -440l34 -59h-173l6 58l-13 61h-124zM196 199h92l-46 228zM116 713h106l55 -98h-62z" />
    <glyph glyph-name="aacute" unicode="&#xe1;" horiz-adv-x="534" 
d="M180 119l-12 -61l5 -58h-173l34 59l105 440l-8 58h222l-7 -58l104 -440l34 -59h-173l6 58l-13 61h-124zM196 199h92l-46 228zM209 615l55 98h106l-99 -98h-62z" />
    <glyph glyph-name="acircumflex" unicode="&#xe2;" horiz-adv-x="534" 
d="M180 119l-12 -61l5 -58h-173l34 59l105 440l-8 58h222l-7 -58l104 -440l34 -59h-173l6 58l-13 61h-124zM196 199h92l-46 228zM182 615l-20 46l80 34l81 -34l-20 -46l-61 36z" />
    <glyph glyph-name="atilde" unicode="&#xe3;" horiz-adv-x="534" 
d="M304 119l13 -61l-6 -58h173l-34 59l-104 440l7 58h-222l8 -58l-105 -440l-34 -59h173l-5 58l12 61h124zM261 615q-20 0 -38 7.5t-38 7.5q-11 0 -21.5 -2t-21.5 -13q0 40 20.5 60t52.5 20q10 0 21 -2.5t22.5 -5.5t22 -5.5t19.5 -2.5q10 0 21.5 3.5t21.5 12.5
q0 -44 -25 -62t-57 -18zM242 427l46 -228h-92z" />
    <glyph glyph-name="adieresis" unicode="&#xe4;" horiz-adv-x="534" 
d="M304 119l13 -61l-6 -58h173l-34 59l-104 440l7 58h-222l8 -58l-105 -440l-34 -59h173l-5 58l12 61h124zM242 427l46 -228h-92zM313 703q18 0 31 -13t13 -31q0 -19 -13 -31.5t-31 -12.5q-19 0 -32 12.5t-13 31.5q0 18 13 31t32 13zM172 703q19 0 31.5 -13t12.5 -31
q0 -19 -12.5 -31.5t-31.5 -12.5q-18 0 -31 12.5t-13 31.5q0 18 13 31t31 13z" />
    <glyph glyph-name="aring" unicode="&#xe5;" horiz-adv-x="534" 
d="M304 119l13 -61l-6 -58h173l-34 59l-104 440l7 58h-222l8 -58l-105 -440l-34 -59h173l-5 58l12 61h124zM242 782q18 0 33.5 -7t27.5 -18.5t18.5 -27t6.5 -33.5q0 -36 -25 -61t-61 -25q-18 0 -33.5 7t-27 18.5t-18.5 27t-7 33.5t7 33.5t18.5 27t27 18.5t33.5 7zM242 427
l46 -228h-92zM242 650q19 0 32.5 13t13.5 33q0 19 -13.5 32.5t-32.5 13.5t-32.5 -13.5t-13.5 -32.5t13.5 -32.5t32.5 -13.5z" />
    <glyph glyph-name="ae" unicode="&#xe6;" horiz-adv-x="823" 
d="M750 0h-439l6 58l-13 61h-124l-12 -61l5 -58h-173l34 59l105 440l-8 58h222l-7 -58l100 -424v423l-20 59h339v-128l-59 20h-127v-145h95l47 16v-110l-48 14h-94v-115h148l46 22l-23 -131v0v0zM288 199l-46 228l-46 -228h92v0v0z" />
    <glyph glyph-name="ccedilla" unicode="&#xe7;" horiz-adv-x="449" 
d="M315 0q6 -21 16.5 -36.5t21 -29t18 -27.5t7.5 -33t-9 -32t-23 -21t-31 -11.5t-33 -3.5q-26 0 -53 7.5t-46 19.5l14 80q21 -22 41 -34t40 -12q14 0 19.5 5t5.5 10q0 15 -7.5 25.5t-17.5 22.5t-20 27.5t-14 40.5q-26 3 -52 9q-44 12 -79.5 39t-60.5 63.5t-38.5 80
t-13.5 88.5q0 51 16.5 97.5t46.5 83.5t71.5 62.5t91.5 34.5q15 3 35.5 4t42.5 -0.5t43.5 -5.5t37.5 -11l-21 -122q-32 21 -69.5 28t-72.5 -10q-88 -45 -88 -161q0 -32 9 -62t26.5 -53t43.5 -37t61 -14q66 0 115 44v-135q-17 -8 -35.5 -13t-38.5 -8z" />
    <glyph glyph-name="egrave" unicode="&#xe8;" horiz-adv-x="407" 
d="M324 0h-323l20 58v440l-21 59h340v-128l-59 20h-128v-145h96l46 16v-110l-47 14h-95v-115h148l46 21zM47 713h106l55 -98h-62z" />
    <glyph glyph-name="eacute" unicode="&#xe9;" horiz-adv-x="407" 
d="M324 0h-323l20 58v440l-21 59h340v-128l-59 20h-128v-145h96l46 16v-110l-47 14h-95v-115h148l46 21zM141 615l55 98h106l-99 -98h-62z" />
    <glyph glyph-name="ecircumflex" unicode="&#xea;" horiz-adv-x="407" 
d="M324 0h-323l20 58v440l-21 59h340v-128l-59 20h-128v-145h96l46 16v-110l-47 14h-95v-115h148l46 21zM113 615l-20 46l80 34l81 -34l-20 -46l-61 36z" />
    <glyph glyph-name="edieresis" unicode="&#xeb;" horiz-adv-x="407" 
d="M324 0h-323l20 58v440l-21 59h340v-128l-59 20h-128v-145h96l46 16v-110l-47 14h-95v-115h148l46 21zM244 703q18 0 31 -13t13 -31q0 -19 -13 -31.5t-31 -12.5q-19 0 -32 12.5t-13 31.5q0 18 13 31t32 13zM103 703q19 0 31.5 -13t12.5 -31q0 -19 -12.5 -31.5t-31.5 -12.5
q-18 0 -31 12.5t-13 31.5q0 18 13 31t31 13z" />
    <glyph glyph-name="igrave" unicode="&#xec;" 
d="M1 0l19 58v440l-20 59h171l-19 -59v-440l20 -58h-171zM-42 713h106l55 -98h-62z" />
    <glyph glyph-name="iacute" unicode="&#xed;" 
d="M1 0l19 58v440l-20 59h171l-19 -59v-440l20 -58h-171zM52 615l55 98h106l-99 -98h-62z" />
    <glyph glyph-name="icircumflex" unicode="&#xee;" 
d="M1 0l19 58v440l-20 59h171l-19 -59v-440l20 -58h-171zM26 615l-20 46l80 34l81 -34l-20 -46l-61 36z" />
    <glyph glyph-name="idieresis" unicode="&#xef;" 
d="M1 0l19 58v440l-20 59h171l-19 -59v-440l20 -58h-171zM157 703q18 0 31 -13t13 -31q0 -19 -13 -31.5t-31 -12.5q-19 0 -32 12.5t-13 31.5q0 18 13 31t32 13zM16 703q19 0 31.5 -13t12.5 -31q0 -19 -12.5 -31.5t-31.5 -12.5q-18 0 -31 12.5t-13 31.5q0 18 13 31t31 13z
" />
    <glyph glyph-name="eth" unicode="&#xf0;" horiz-adv-x="550" 
d="M231 438h-44v-116h55l-15 -87h-40v-117h45q64 0 97 53q27 43 27 111q0 34 -6.5 62.5t-21 49.5t-38.5 32.5t-59 11.5zM55 498l-22 59h184q62 0 112.5 -17t86 -50.5t55 -84.5t19.5 -118q0 -65 -16.5 -118t-49 -90.5t-81 -58t-113.5 -20.5h-196l21 58v177h-55l15 87h40v176z
" />
    <glyph glyph-name="ntilde" unicode="&#xf1;" horiz-adv-x="512" 
d="M303 0l-150 286l1 -228l20 -58h-173l21 58v440l-22 59h154l144 -273v214l-20 59h174l-21 -59v-440l20 -58h-148zM245 615q-20 0 -38 7.5t-38 7.5q-11 0 -21.5 -2t-21.5 -13q0 40 20.5 60t52.5 20q10 0 21 -2.5t22.5 -5.5t22 -5.5t19.5 -2.5q10 0 21.5 3.5t21.5 12.5
q0 -44 -25 -62t-57 -18z" />
    <glyph glyph-name="ograve" unicode="&#xf2;" horiz-adv-x="546" 
d="M243 560q58 0 103.5 -25.5t76.5 -65.5t47 -90.5t16 -99.5q0 -50 -16 -100t-47 -90.5t-76.5 -66t-103.5 -25.5t-103.5 25.5t-76.5 66t-47 90.5t-16 100q0 51 16.5 101.5t48 90t76.5 64.5t102 25zM122 279q0 -25 7 -55t22 -56t38 -43.5t54 -17.5t54 17.5t38 43.5t22 56
t7 55q0 24 -7 54t-22 56t-38 43.5t-54 17.5q-32 0 -54.5 -17.5t-37.5 -43.5t-22 -55.5t-7 -54.5zM116 713h106l55 -98h-62z" />
    <glyph glyph-name="oacute" unicode="&#xf3;" horiz-adv-x="546" 
d="M243 560q58 0 103.5 -25.5t76.5 -65.5t47 -90.5t16 -99.5q0 -50 -16 -100t-47 -90.5t-76.5 -66t-103.5 -25.5t-103.5 25.5t-76.5 66t-47 90.5t-16 100q0 51 16.5 101.5t48 90t76.5 64.5t102 25zM122 279q0 -25 7 -55t22 -56t38 -43.5t54 -17.5t54 17.5t38 43.5t22 56
t7 55q0 24 -7 54t-22 56t-38 43.5t-54 17.5q-32 0 -54.5 -17.5t-37.5 -43.5t-22 -55.5t-7 -54.5zM210 615l55 98h106l-99 -98h-62z" />
    <glyph glyph-name="ocircumflex" unicode="&#xf4;" horiz-adv-x="546" 
d="M243 560q58 0 103.5 -25.5t76.5 -65.5t47 -90.5t16 -99.5q0 -50 -16 -100t-47 -90.5t-76.5 -66t-103.5 -25.5t-103.5 25.5t-76.5 66t-47 90.5t-16 100q0 51 16.5 101.5t48 90t76.5 64.5t102 25zM122 279q0 -25 7 -55t22 -56t38 -43.5t54 -17.5t54 17.5t38 43.5t22 56
t7 55q0 24 -7 54t-22 56t-38 43.5t-54 17.5q-32 0 -54.5 -17.5t-37.5 -43.5t-22 -55.5t-7 -54.5zM183 615l-20 46l80 34l81 -34l-20 -46l-61 36z" />
    <glyph glyph-name="otilde" unicode="&#xf5;" horiz-adv-x="546" 
d="M243 560q58 0 103.5 -25.5t76.5 -65.5t47 -90.5t16 -99.5q0 -50 -16 -100t-47 -90.5t-76.5 -66t-103.5 -25.5t-103.5 25.5t-76.5 66t-47 90.5t-16 100q0 51 16.5 101.5t48 90t76.5 64.5t102 25zM122 279q0 -25 7 -55t22 -56t38 -43.5t54 -17.5t54 17.5t38 43.5t22 56
t7 55q0 24 -7 54t-22 56t-38 43.5t-54 17.5q-32 0 -54.5 -17.5t-37.5 -43.5t-22 -55.5t-7 -54.5zM262 615q-20 0 -38 7.5t-38 7.5q-11 0 -21.5 -2t-21.5 -13q0 40 20.5 60t52.5 20q10 0 21 -2.5t22.5 -5.5t22 -5.5t19.5 -2.5q10 0 21.5 3.5t21.5 12.5q0 -44 -25 -62t-57 -18
z" />
    <glyph glyph-name="odieresis" unicode="&#xf6;" horiz-adv-x="546" 
d="M243 560q58 0 103.5 -25.5t76.5 -65.5t47 -90.5t16 -99.5q0 -50 -16 -100t-47 -90.5t-76.5 -66t-103.5 -25.5t-103.5 25.5t-76.5 66t-47 90.5t-16 100q0 51 16.5 101.5t48 90t76.5 64.5t102 25zM122 279q0 -25 7 -55t22 -56t38 -43.5t54 -17.5t54 17.5t38 43.5t22 56
t7 55q0 24 -7 54t-22 56t-38 43.5t-54 17.5q-32 0 -54.5 -17.5t-37.5 -43.5t-22 -55.5t-7 -54.5zM314 703q18 0 31 -13t13 -31q0 -19 -13 -31.5t-31 -12.5q-19 0 -32 12.5t-13 31.5q0 18 13 31t32 13zM173 703q19 0 31.5 -13t12.5 -31q0 -19 -12.5 -31.5t-31.5 -12.5
q-18 0 -31 12.5t-13 31.5q0 18 13 31t31 13z" />
    <glyph glyph-name="divide" unicode="&#xf7;" horiz-adv-x="412" 
d="M16 323h129q-15 8 -24 23t-9 33q0 27 19 46t45 19q27 0 45.5 -19t18.5 -46q0 -18 -9 -33t-24 -23h145l-15 -89h-130q15 -8 24 -23t9 -33q0 -26 -18.5 -45t-45.5 -19q-26 0 -45 19t-19 45q0 18 9 33t24 23h-145z" />
    <glyph glyph-name="oslash" unicode="&#xf8;" horiz-adv-x="546" 
d="M243 560q55 0 100 -24.5t77 -64.5t49 -90t17 -102q0 -51 -16.5 -101.5t-48 -90.5t-76.5 -65t-102 -25q-56 0 -100.5 24.5t-76.5 64.5t-49 90.5t-17 102.5q0 51 17 101.5t48.5 90t76.5 64.5t101 25zM122 279q0 -23 6 -50.5t20 -53.5l156 252q-13 11 -28 17t-33 6
q-31 0 -54 -17t-38 -42.5t-22 -55.5t-7 -56zM364 279q0 23 -6 50.5t-20 52.5l-156 -252q13 -11 28 -17t33 -6q31 0 54 17t38 42.5t22 56t7 56.5z" />
    <glyph glyph-name="ugrave" unicode="&#xf9;" horiz-adv-x="483" 
d="M402 499v-335q0 -48 -20.5 -82t-54.5 -54q-23 -14 -52.5 -21t-60 -7t-60 6t-53.5 19q-36 20 -58.5 55t-22.5 84v335l-20 58h169l-19 -58v-326q0 -28 19 -42t42.5 -14t42.5 14t19 42v326l-19 58h169zM83 713h106l55 -98h-62z" />
    <glyph glyph-name="uacute" unicode="&#xfa;" horiz-adv-x="483" 
d="M402 499v-335q0 -48 -20.5 -82t-54.5 -54q-23 -14 -52.5 -21t-60 -7t-60 6t-53.5 19q-36 20 -58.5 55t-22.5 84v335l-20 58h169l-19 -58v-326q0 -28 19 -42t42.5 -14t42.5 14t19 42v326l-19 58h169zM175 615l55 98h106l-99 -98h-62z" />
    <glyph glyph-name="ucircumflex" unicode="&#xfb;" horiz-adv-x="483" 
d="M402 499v-335q0 -48 -20.5 -82t-54.5 -54q-23 -14 -52.5 -21t-60 -7t-60 6t-53.5 19q-36 20 -58.5 55t-22.5 84v335l-20 58h169l-19 -58v-326q0 -28 19 -42t42.5 -14t42.5 14t19 42v326l-19 58h169zM151 615l-20 46l80 34l81 -34l-20 -46l-61 36z" />
    <glyph glyph-name="udieresis" unicode="&#xfc;" horiz-adv-x="483" 
d="M402 499v-335q0 -48 -20.5 -82t-54.5 -54q-23 -14 -52.5 -21t-60 -7t-60 6t-53.5 19q-36 20 -58.5 55t-22.5 84v335l-20 58h169l-19 -58v-326q0 -28 19 -42t42.5 -14t42.5 14t19 42v326l-19 58h169zM282 703q18 0 31 -13t13 -31q0 -19 -13 -31.5t-31 -12.5
q-19 0 -32 12.5t-13 31.5q0 18 13 31t32 13zM141 703q19 0 31.5 -13t12.5 -31q0 -19 -12.5 -31.5t-31.5 -12.5q-18 0 -31 12.5t-13 31.5q0 18 13 31t31 13z" />
    <glyph glyph-name="yacute" unicode="&#xfd;" horiz-adv-x="520" 
d="M429 532l-119 -297v-177l21 -58h-184l22 58v174l-128 300l-41 25h183l-11 -25l67 -182l65 182l-11 25h177zM204 615l55 98h106l-99 -98h-62z" />
    <glyph glyph-name="thorn" unicode="&#xfe;" horiz-adv-x="432" 
d="M1 0l19 58v440l-20 59h171l-19 -59v-39q7 2 13.5 3t12.5 1q43 0 78.5 -12.5t61 -36t39.5 -57.5t14 -78t-14 -78.5t-39.5 -58t-61 -36t-78.5 -12.5q-11 0 -26 5v-41l20 -58h-171zM152 197q4 -1 13 -1q42 0 64 19.5t24 63.5q-3 83 -88 83q-5 0 -13 -2v-163z" />
    <glyph glyph-name="ydieresis" unicode="&#xff;" horiz-adv-x="520" 
d="M429 532l-119 -297v-177l21 -58h-184l22 58v174l-128 300l-41 25h183l-11 -25l67 -182l65 182l-11 25h177zM310 703q18 0 31 -13t13 -31q0 -19 -13 -31.5t-31 -12.5q-19 0 -32 12.5t-13 31.5q0 18 13 31t32 13zM169 703q19 0 31.5 -13t12.5 -31q0 -19 -12.5 -31.5
t-31.5 -12.5q-18 0 -31 12.5t-13 31.5q0 18 13 31t31 13z" />
    <glyph glyph-name="Lslash" unicode="&#x141;" horiz-adv-x="460" 
d="M377 0h-334l20 58v191l-33 -12l-30 82l63 23v237l-21 59h170l-17 -59v-189l32 11l30 -82l-62 -22v-188h160l45 22l-23 -131v0v0z" />
    <glyph glyph-name="lslash" unicode="&#x142;" horiz-adv-x="452" 
d="M369 0h-327l21 58v151l-33 -13l-30 82l63 23v197l-22 59h170l-17 -59v-149l33 12l30 -82l-63 -23v-147h152l46 22l-23 -131v0v0z" />
    <glyph glyph-name="OE" unicode="&#x152;" horiz-adv-x="911" 
d="M0 322q0 61 21 119t59.5 102t92 71t119.5 27q74 0 130.5 -32.5t94.5 -83.5v54l-21 59h348v-129l-59 20h-135v-209h103l47 15v-109l-48 13h-102v-130h156l45 22l-23 -131h-331l20 58v58q-38 -53 -94.5 -86t-130.5 -33q-66 0 -120 28t-92 73.5t-59 104t-21 119.5zM292 103
q41 0 71.5 22.5t50 55.5t29 71t9.5 70q0 31 -9.5 69.5t-29 72t-50 56t-71.5 22.5t-71.5 -21.5t-50 -54.5t-29 -71.5t-9.5 -72.5t10 -72.5t29.5 -71t49.5 -54t71 -21.5z" />
    <glyph glyph-name="oe" unicode="&#x153;" horiz-adv-x="806" 
d="M723 0h-323l20 58v27q-32 -39 -76 -63.5t-101 -24.5t-102 25t-76.5 65t-48 90.5t-16.5 101.5t16.5 101.5t48 90t76.5 64.5t102 25t101 -24t76 -63v25l-21 59h340v-128l-59 20h-128v-145h96l46 16v-110l-47 14h-95v-115h148l46 22zM243 107q31 0 54 17.5t38 43.5t22 56
t7 55q0 24 -7 54t-22 56t-38 43.5t-54 17.5q-32 0 -54.5 -17.5t-37.5 -43t-22 -55.5t-7 -55q0 -26 7 -56.5t22 -56t38 -42.5t54 -17z" />
    <glyph glyph-name="Scaron" unicode="&#x160;" horiz-adv-x="448" 
d="M198 641q35 0 69 -9t63 -21l-26 -129q-50 42 -106 42q-27 0 -46 -19.5t-19 -45.5q0 -16 19 -29t47 -28t61.5 -33t61.5 -44t47 -62t19 -86q0 -43 -20 -76.5t-52 -56.5t-71 -35t-77 -12q-44 0 -89 9t-76 23l26 150q64 -61 141 -61q40 0 62.5 17t23.5 42q0 26 -19 44.5
t-47.5 34.5t-61.5 32.5t-61.5 39t-47.5 54t-19 77.5q0 41 15.5 74.5t42.5 57.5t63 37t77 13zM259 790l20 -46l-81 -34l-80 34l20 46l60 -36z" />
    <glyph glyph-name="scaron" unicode="&#x161;" horiz-adv-x="433" 
d="M26 177q66 -61 141 -61q78 0 78 54q0 39 -75 72q-44 19 -72 33.5t-42 25.5q-53 42 -53 114q0 76 53 115q25 19 59 25.5t69.5 4.5t70 -9.5t60.5 -15.5l-24 -137q-59 56 -121 56q-39 0 -39 -30q0 -20 21 -29l79 -32q142 -62 142 -175q0 -79 -57 -134q-36 -36 -80 -49
q-24 -7 -55 -8t-64 2.5t-64 11.5t-53 18zM247 695l20 -46l-81 -34l-80 34l20 46l60 -36z" />
    <glyph glyph-name="Ydieresis" unicode="&#x178;" horiz-adv-x="542" 
d="M0 638l45 -58l135 -283v-239l-19 -58h171l-19 58v239l135 283l44 58h-170l-7 -58l-69 -144l-69 144l-6 58h-171zM317 798q18 0 31 -13t13 -31q0 -19 -13 -31.5t-31 -12.5q-19 0 -32 12.5t-13 31.5q0 18 13 31t32 13zM176 798q19 0 31.5 -13t12.5 -31q0 -19 -12.5 -31.5
t-31.5 -12.5q-18 0 -31 12.5t-13 31.5q0 18 13 31t31 13z" />
    <glyph glyph-name="Zcaron" unicode="&#x17d;" horiz-adv-x="465" 
d="M390 529l-257 -420h198l74 21l-23 -130h-382v109l257 420h-167l-74 -22v131h374v-109zM263 790l20 -46l-81 -34l-80 34l20 46l60 -36z" />
    <glyph glyph-name="zcaron" unicode="&#x17e;" horiz-adv-x="434" 
d="M351 0h-351v105l211 343h-129l-74 -21v130h350v-105l-205 -343h147l74 21zM248 695l20 -46l-81 -34l-80 34l20 46l60 -36z" />
    <glyph glyph-name="florin" unicode="&#x192;" horiz-adv-x="445" 
d="M185 481h-71q2 17 5 32.5t5 32.5h71l9 64q3 19 13 35.5t24 29t32 19.5t37 7h75q-2 -16 -4.5 -32t-5.5 -32h-37q-10 0 -21.5 0.5t-21.5 -1.5t-17 -8t-9 -18l-10 -64h69q-2 -17 -5 -32.5t-5 -32.5h-69l-68 -455q-3 -19 -13 -35.5t-24 -29t-32 -19.5t-37 -7h-75q2 16 4.5 32
t5.5 32h37q10 0 21.5 -0.5t21.5 1.5t17 8t9 18z" />
    <glyph glyph-name="circumflex" unicode="&#x2c6;" horiz-adv-x="221" 
d="M80 638v0l-60 -36l-20 46l80 34l81 -34l-20 -46l-61 36v0z" />
    <glyph glyph-name="caron" unicode="&#x2c7;" horiz-adv-x="221" 
d="M141 684l20 -46l-81 -34l-80 34l20 46l60 -36v0z" />
    <glyph glyph-name="dotaccent" unicode="&#x2d9;" horiz-adv-x="205" 
d="M72 743q30 0 51.5 -21.5t21.5 -51.5t-21.5 -51t-51.5 -21t-51 21t-21 51t21 51.5t51 21.5z" />
    <glyph glyph-name="ring" unicode="&#x2da;" 
d="M86 770q18 0 33.5 -7t27.5 -18.5t18.5 -27t6.5 -33.5q0 -36 -25 -61t-61 -25q-18 0 -33.5 7t-27 18.5t-18.5 27t-7 33.5t7 33.5t18.5 27t27 18.5t33.5 7zM86 638q19 0 32.5 13t13.5 33q0 19 -13.5 32.5t-32.5 13.5t-32.5 -13.5t-13.5 -32.5t13.5 -32.5t32.5 -13.5z" />
    <glyph glyph-name="ogonek" unicode="&#x2db;" horiz-adv-x="255" 
d="M138 0q0 -38 -9.5 -60t-21 -37t-21.5 -27t-10 -29q0 -5 5.5 -10t19.5 -5q20 0 40 12t40 34l14 -80q-19 -12 -45.5 -19.5t-53.5 -7.5q-15 0 -32 3.5t-31.5 11.5t-23.5 21t-9 32q0 22 10.5 38t23.5 32.5t23.5 37.5t10.5 53h70v0z" />
    <glyph glyph-name="tilde" unicode="&#x2dc;" horiz-adv-x="261" 
d="M119 598q-20 0 -38 7.5t-38 7.5q-11 0 -21.5 -2t-21.5 -13q0 40 20.5 60t52.5 20q10 0 21 -2.5t22.5 -5.5t22 -5.5t19.5 -2.5q10 0 21.5 3.5t21.5 12.5q0 -44 -25 -62t-57 -18z" />
    <glyph glyph-name="hungarumlaut" unicode="&#x2dd;" horiz-adv-x="359" 
d="M0 589l55 98h106l-99 -98h-62zM138 589l55 98h106l-99 -98h-62z" />
    <glyph glyph-name="endash" unicode="&#x2013;" horiz-adv-x="442" 
d="M16 323h366l-16 -89h-366z" />
    <glyph glyph-name="emdash" unicode="&#x2014;" horiz-adv-x="617" 
d="M16 323h541l-16 -89h-541z" />
    <glyph glyph-name="quoteleft" unicode="&#x2018;" horiz-adv-x="205" 
d="M73 547q-30 0 -51.5 21t-21.5 51v2q1 23 11 46t25.5 41t34.5 29.5t38 11.5q-11 -10 -21 -25t-14 -32q29 -1 50 -22t21 -51t-21 -51t-51 -21z" />
    <glyph glyph-name="quoteright" unicode="&#x2019;" horiz-adv-x="205" 
d="M72 710q30 0 51.5 -21t21.5 -51v-2q-1 -23 -11 -46t-25.5 -41t-34.5 -29.5t-38 -11.5q11 10 21 25t14 32q-29 1 -50 22t-21 51t21 51t51 21z" />
    <glyph glyph-name="quotesinglbase" unicode="&#x201a;" horiz-adv-x="205" 
d="M72 73q30 0 51.5 -21.5t21.5 -51.5v-2q-1 -23 -11 -45.5t-25.5 -40.5t-34.5 -29.5t-38 -11.5q11 9 21 24.5t14 32.5q-29 1 -50 22t-21 50q0 30 21 51.5t51 21.5z" />
    <glyph glyph-name="quotedblleft" unicode="&#x201c;" horiz-adv-x="338" 
d="M73 547q-30 0 -51.5 21t-21.5 51v2q1 23 11 46t25.5 41t34.5 29.5t38 11.5q-11 -10 -21 -25t-14 -32q21 -1 38 -12.5t26 -28.5q6 19 16.5 37t25 31.5t30.5 21.5t32 8q-11 -10 -21 -25t-14 -32q29 -1 50 -22t21 -51t-21 -51t-51 -21q-23 0 -41 12t-26 31q-8 -19 -25.5 -31
t-40.5 -12z" />
    <glyph glyph-name="quotedblright" unicode="&#x201d;" horiz-adv-x="338" 
d="M205 710q30 0 51.5 -21t21.5 -51v-2q-1 -23 -11 -46t-25.5 -41t-34.5 -29.5t-38 -11.5q11 10 21 25t14 32q-21 1 -38 12.5t-26 28.5q-6 -19 -16.5 -37t-25 -31.5t-30.5 -21.5t-32 -8q11 10 21 25t14 32q-29 1 -50 22t-21 51t21 51t51 21q23 0 41 -12t26 -31q8 19 25.5 31
t40.5 12z" />
    <glyph glyph-name="quotedblbase" unicode="&#x201e;" horiz-adv-x="338" 
d="M205 73q30 0 51.5 -21t21.5 -51v-2q-1 -23 -11 -46t-25.5 -41t-34.5 -29.5t-38 -11.5q11 10 21 25t14 32q-21 1 -38 12.5t-26 28.5q-6 -19 -16.5 -37t-25 -31.5t-30.5 -21.5t-32 -8q11 10 21 25t14 32q-29 1 -50 22t-21 51t21 51t51 21q23 0 41 -12t26 -31q8 19 25.5 31
t40.5 12z" />
    <glyph glyph-name="dagger" unicode="&#x2020;" horiz-adv-x="382" 
d="M193 -133h-64v614h-129v64h129v225h64v-225h129v-64h-129v-614v0v0z" />
    <glyph glyph-name="daggerdbl" unicode="&#x2021;" horiz-adv-x="382" 
d="M193 -133h-64v224h-129v64h129v326h-129v64h129v225h64v-225h129v-64h-129v-326h129v-64h-129v-224v0v0z" />
    <glyph glyph-name="bullet" unicode="&#x2022;" horiz-adv-x="301" 
d="M121 399q25 0 46.5 -9.5t38 -26t26 -38t9.5 -46.5t-9.5 -47t-26 -38.5t-38 -26t-46.5 -9.5t-47 9.5t-38.5 26t-26 38.5t-9.5 47t9.5 46.5t26 38t38.5 26t47 9.5z" />
    <glyph glyph-name="ellipsis" unicode="&#x2026;" horiz-adv-x="630" 
d="M72 145q30 0 51.5 -21.5t21.5 -51.5q0 -29 -21.5 -50.5t-51.5 -21.5t-51 21.5t-21 50.5q0 30 21 51.5t51 21.5zM285 145q30 0 51.5 -21.5t21.5 -51.5q0 -29 -21.5 -50.5t-51.5 -21.5t-51 21.5t-21 50.5q0 30 21 51.5t51 21.5zM497 145q30 0 51.5 -21.5t21.5 -51.5
q0 -29 -21.5 -50.5t-51.5 -21.5t-51 21.5t-21 50.5q0 30 21 51.5t51 21.5z" />
    <glyph glyph-name="perthousand" unicode="&#x2030;" horiz-adv-x="808" 
d="M136 0l203 638h64l-203 -638h-64zM628 -3q-38 0 -64.5 21t-40.5 52q-14 -31 -40.5 -52t-64.5 -21q-29 0 -51.5 13t-37.5 34t-23 47t-8 52t8 52.5t23 47.5t37.5 34t51.5 13q38 0 64.5 -21t40.5 -53q14 32 40.5 53t64.5 21q28 0 50.5 -13t38 -34t23.5 -47.5t8 -52.5t-8 -52
t-23.5 -47t-38 -34t-50.5 -13zM628 62q14 0 24.5 8t17.5 20.5t10.5 26.5t3.5 26t-3.5 26.5t-10.5 27t-17.5 20.5t-24.5 8q-15 0 -25.5 -8t-17.5 -20.5t-10.5 -27t-3.5 -26.5t3.5 -26t10 -26.5t17.5 -20.5t26 -8zM418 62q15 0 25.5 8t17.5 20.5t10.5 26.5t3.5 26t-3.5 26.5
t-10.5 27t-17.5 20.5t-25.5 8q-14 0 -24.5 -8t-17.5 -20.5t-10.5 -27t-3.5 -26.5t3.5 -26t10 -26.5t17 -20.5t25.5 -8zM121 348q-29 0 -51.5 13.5t-38 34.5t-23.5 47t-8 52t8 52t23.5 47t38 34t51.5 13q28 0 50.5 -13t38 -34t23.5 -47t8 -52t-8 -52.5t-23.5 -47.5t-38 -34
t-50.5 -13zM121 413q14 0 24.5 8t17.5 20.5t10.5 27t3.5 26.5t-3.5 26t-10.5 26.5t-17.5 20.5t-24.5 8q-15 0 -25.5 -8t-17.5 -20.5t-10.5 -26.5t-3.5 -26t3.5 -26.5t10 -26.5t17.5 -20.5t26 -8.5z" />
    <glyph glyph-name="guilsinglleft" unicode="&#x2039;" horiz-adv-x="275" 
d="M0 279l126 180l89 -59l-115 -121l115 -121l-89 -59l-126 180v0v0z" />
    <glyph glyph-name="guilsinglright" unicode="&#x203a;" horiz-adv-x="275" 
d="M215 279v0l-126 -180l-89 59l115 121l-115 121l89 59z" />
    <glyph glyph-name="fraction" unicode="&#x2044;" horiz-adv-x="329" 
d="M0 0l205 638h64l-205 -638h-64z" />
    <glyph glyph-name="Euro" unicode="&#x20ac;" horiz-adv-x="508" 
d="M332 116q68 0 116 45l-26 -150q-44 -14 -90 -14q-54 0 -100 16.5t-82 45.5t-62 68t-39 85h-49l15 87h19v16v24h-34l15 87h36q14 45 40 84t61.5 68.5t81 46t98.5 16.5q29 0 59.5 -4t52.5 -14l-21 -131q-20 14 -43.5 22t-47.5 8q-50 0 -85.5 -27t-55.5 -69h157l-16 -87
h-164q-1 -6 -1.5 -12t-0.5 -12q0 -4 0.5 -8t0.5 -8h181l-16 -87h-144q20 -42 55.5 -69t88.5 -27z" />
    <glyph glyph-name="trademark" unicode="&#x2122;" horiz-adv-x="428" 
d="M157 671h-55v-162h-48v162h-54v39h157v-39v0v0zM368 710v-201h-47v92l-46 -92l-46 93v-93h-48v201h48l46 -95l46 95h47v0v0z" />
    <glyph glyph-name="minus" unicode="&#x2212;" horiz-adv-x="476" 
d="M0 313h416v-69h-416v69z" />
    <glyph glyph-name="integral" unicode="&#x222b;" horiz-adv-x="445" 
d="M204 610q6 38 36.5 64.5t68.5 26.5h76q-2 -16 -4.5 -32t-5.5 -32h-37q-10 0 -21.5 0.5t-21.5 -1.5t-17 -8t-9 -18l-88 -584q-3 -19 -13 -35.5t-24 -29t-32 -19.5t-37 -7h-75q2 16 4.5 32t5.5 32h37q10 0 21.5 -0.5t21.5 1.5t17 8t9 18z" />
    <glyph glyph-name="approxequal" unicode="&#x2248;" horiz-adv-x="350" 
d="M176 301q-28 0 -54 9.5t-54 9.5q-15 0 -29.5 -3t-30.5 -16q0 50 28.5 75t74.5 25q13 0 29 -3t32 -7t31 -7t27 -3q14 0 30 4t30 16q0 -28 -9.5 -47t-25.5 -31t-36.5 -17t-42.5 -5zM168 157q-28 0 -54 10t-54 10q-15 0 -29.5 -3t-30.5 -17q0 50 28.5 75t74.5 25q13 0 29 -3
t31.5 -7t31 -7t27.5 -3q14 0 30 4.5t30 15.5q0 -27 -9.5 -46t-25.5 -31t-36.5 -17.5t-42.5 -5.5z" />
    <glyph glyph-name="notequal" unicode="&#x2260;" horiz-adv-x="329" 
d="M19 434h120l66 204h64l-66 -204h63l-16 -89h-75l-17 -52h108l-16 -89h-120l-66 -204h-64l65 204h-62l16 89h75l17 52h-108l16 89v0v0z" />
    <glyph glyph-name="lessequal" unicode="&#x2264;" horiz-adv-x="306" 
d="M0 64h246v-64h-246v64v0v0zM2 303l220 99l22 -88l-152 -52l152 -53l-22 -88l-220 99v83v0v0z" />
    <glyph glyph-name="greaterequal" unicode="&#x2265;" horiz-adv-x="306" 
d="M246 64v0v-64h-246v64h246zM244 303v0v-83l-220 -99l-22 88l152 53l-152 52l22 88z" />
    <glyph glyph-name="f_z" unicode="&#xe000;" horiz-adv-x="748" 
d="M153 449v-145h95l46 16v-110l-47 14h-94v-166l20 -58h-172l20 58v440l-21 59h672v-105l-204 -343h147l73 22l-23 -131h-350v105l210 344h-372v0v0z" />
    <glyph glyph-name="f_u" unicode="&#xe001;" horiz-adv-x="801" 
d="M721 499v-335q0 -48 -21 -82t-55 -54q-23 -14 -52 -20.5t-59.5 -7t-60 5.5t-53.5 19q-36 20 -58.5 55t-22.5 84v285h-186v-145h95l46 16v-110l-47 14h-94v-166l20 -58h-172l20 58v440l-21 59h487l-19 -58v-326q0 -28 19 -42t42.5 -14t42.5 14t19 42v326l-19 58h169z" />
    <glyph glyph-name="f_t" unicode="&#xe002;" horiz-adv-x="674" 
d="M568 449h-97v-390l18 -59h-171l21 58v391h-186v-145h95l46 16v-110l-47 14h-94v-166l20 -58h-172l20 58v440l-21 59h614v-131l-46 23v0v0z" />
    <glyph glyph-name="f_k" unicode="&#xe003;" horiz-adv-x="813" 
d="M597 0l-112 227l-18 -26v-143l20 -58h-167l19 58v391h-186v-145h95l46 16v-110l-47 14h-94v-166l20 -58h-172l20 58v440l-21 59h487l-20 -59v-110l90 137l-7 32h183l-49 -37l-115 -170l154 -311l40 -39h-166v0v0z" />
    <glyph glyph-name="f_h" unicode="&#xe004;" horiz-adv-x="830" 
d="M320 0l19 58v391h-186v-145h95l46 16v-110l-47 14h-94v-166l20 -58h-172l20 58v440l-21 59h490l-19 -59v-299h147v299l-20 59h171l-18 -59v-440l19 -58h-170l18 58v61h-147v-61l20 -58h-171v0v0z" />
    <glyph glyph-name="ampersand.3" unicode="&#xe005;" horiz-adv-x="537" 
d="M247 263q-18 0 -38 -4.5t-37 -14t-28 -24.5t-11 -36q0 -26 27 -45t66 -19q40 0 58.5 19t19.5 45v79h-57zM437 184q0 -45 -18 -80t-47.5 -58.5t-67.5 -36t-78 -12.5t-80.5 12.5t-72.5 36t-52.5 58.5t-20.5 80q0 41 19.5 74.5t45.5 59.5q-23 25 -40.5 56.5t-17.5 69.5
q0 52 18 89.5t49.5 61.5t74 35t91.5 11q37 0 70 -11t59 -30.5t43.5 -46.5t22.5 -58l-131 -23q0 27 -19 46t-45 19q-42 0 -71 -24t-29 -69q0 -19 10.5 -33t26.5 -23.5t35 -14.5t35 -5h57v41h133v-41h40v-105h-40v-79z" />
    <glyph glyph-name="ampersand.2" unicode="&#xe006;" horiz-adv-x="603" 
d="M255 -3q-50 0 -96 17.5t-81 48t-56.5 73.5t-21.5 94q0 75 38 125.5t102 74.5l-108 208h376v-129l-43 21h-145l166 -321q6 11 11.5 23.5t10.5 24.5l135 -24q-19 -42 -38 -81.5t-52 -72.5l42 -82h-133l-8 17q-48 -17 -99 -17zM196 321q-28 -10 -45.5 -31.5t-17.5 -59.5
q0 -30 11 -50.5t28 -34t39 -19.5t44 -6q11 0 21 2t20 5z" />
    <glyph glyph-name="fi" unicode="&#xfb01;" horiz-adv-x="551" 
d="M320 0l19 58v391h-186v-145h95l46 16v-110l-47 14h-94v-166l20 -58h-172l20 58v440l-21 59h490l-19 -59v-440l20 -58h-171v0v0z" />
    <glyph glyph-name="fl" unicode="&#xfb02;" horiz-adv-x="728" 
d="M645 0h-327l21 58v391h-186v-145h95l46 16v-110l-47 14h-94v-166l20 -58h-172l20 58v440l-21 59h487l-17 -59v-389h152l46 22l-23 -131v0v0z" />
    <glyph glyph-name="numbersign" unicode="#" horiz-adv-x="698" 
d="M638 476v-65h-138l-59 -184h197v-65h-218l-52 -162h-64l52 162h-174l-52 -162h-65l52 162h-117v65h138l59 184h-197v65h218l52 162h64l-52 -162h174l52 162h65l-52 -162h117v0v0zM436 411h-174l-59 -184h173l60 184v0v0z" />
    <glyph glyph-name="exclam" unicode="!" horiz-adv-x="231" 
d="M86 145q30 0 51 -21.5t21 -51.5q0 -29 -21 -50.5t-51 -21.5t-51 21.5t-21 50.5q0 30 21 51.5t51 21.5zM28 187l-8 402l-20 59h171l-19 -59l-8 -402h-116z" />
    <glyph glyph-name="quotedbl" unicode="&#x22;" horiz-adv-x="338" 
d="M205 710q30 0 51.5 -21t21.5 -51v-2q-1 -23 -11 -46t-25.5 -41t-34.5 -29.5t-38 -11.5q11 10 21 25t14 32q-21 1 -38 12.5t-26 28.5q-6 -19 -16.5 -37t-25 -31.5t-30.5 -21.5t-32 -8q11 10 21 25t14 32q-29 1 -50 22t-21 51t21 51t51 21q23 0 41 -12t26 -31q8 19 25.5 31
t40.5 12z" />
    </font>
</defs>
</svg>
